<?xml version="1.0" encoding="UTF-8"?>
<!DOCTYPE svg PUBLIC "-//W3C//DTD SVG 1.1//EN" "http://www.w3.org/Graphics/SVG/1.1/DTD/svg11.dtd">
<svg xmlns="http://www.w3.org/2000/svg" version="1.1" width="1181px" height="1748px" style="shape-rendering:geometricPrecision; text-rendering:geometricPrecision; image-rendering:optimizeQuality; fill-rule:evenodd; clip-rule:evenodd" xmlns:xlink="http://www.w3.org/1999/xlink">
<g><path style="opacity:0.964" fill="#52967c" d="M 680.5,651.5 C 679.314,646.98 677.48,646.647 675,650.5C 674.374,648.009 673.541,648.009 672.5,650.5C 670.898,649.45 670.065,650.117 670,652.5C 669.751,651.376 669.251,650.376 668.5,649.5C 668.511,650.441 668.011,651.108 667,651.5C 664.743,650.91 663.076,649.577 662,647.5C 661.383,648.449 661.549,649.282 662.5,650C 660.862,650.242 659.362,651.075 658,652.5C 656.295,651.237 654.628,650.903 653,651.5C 652.667,650.833 652.333,650.167 652,649.5C 651.612,650.428 650.945,651.095 650,651.5C 649.814,649.953 648.481,648.953 646,648.5C 644.739,648.759 643.739,649.426 643,650.5C 640.695,650.421 638.195,650.254 635.5,650C 635,649.5 634.5,649 634,648.5C 632.937,649.438 631.77,650.438 630.5,651.5C 624.976,649.058 620.142,650.725 616,656.5C 612.643,655.258 612.81,654.424 616.5,654C 614.388,652.555 612.222,652.722 610,654.5C 609.667,653.833 609.333,653.167 609,652.5C 607.934,654.099 606.434,655.099 604.5,655.5C 604.167,654.833 603.833,654.167 603.5,653.5C 602.416,654.665 601.583,655.998 601,657.5C 600.667,657.167 600.333,656.833 600,656.5C 596.771,659.397 594.437,658.73 593,654.5C 592.492,656.904 591.325,657.571 589.5,656.5C 588.808,657.025 588.308,657.692 588,658.5C 587.692,657.692 587.192,657.025 586.5,656.5C 584.119,658.396 581.619,658.729 579,657.5C 578.581,658.672 577.915,659.672 577,660.5C 576.19,655.954 574.857,655.62 573,659.5C 572.667,659.167 572.333,658.833 572,658.5C 570.238,660.262 568.405,660.928 566.5,660.5C 566.681,640.583 566.681,620.75 566.5,601C 606.148,602.832 645.815,604.665 685.5,606.5C 684.019,621.66 682.352,636.66 680.5,651.5 Z"/></g>
<g><path style="opacity:0.965" fill="#52967c" d="M 541.5,662.5 C 540.542,662.953 539.708,663.619 539,664.5C 537.561,662.986 536.061,662.653 534.5,663.5C 534.511,662.559 534.011,661.892 533,661.5C 531.274,662.648 531.441,663.815 533.5,665C 532.874,665.75 532.374,666.584 532,667.5C 530.582,664.999 529.582,665.332 529,668.5C 526,668.5 523,668.5 520,668.5C 518.667,670.5 517.333,672.5 516,674.5C 515.586,674.043 515.086,673.709 514.5,673.5C 512.167,674.167 509.833,674.833 507.5,675.5C 506.808,674.975 506.308,674.308 506,673.5C 505,676.167 504,676.167 503,673.5C 502.586,673.957 502.086,674.291 501.5,674.5C 500.573,672.887 499.739,671.221 499,669.5C 497.544,673.812 495.044,675.146 491.5,673.5C 489.333,674.792 487,675.625 484.5,676C 485.833,676.667 487.167,677.333 488.5,678C 487.234,678.309 486.067,678.809 485,679.5C 482.822,678.107 481.822,676.44 482,674.5C 481.632,675.91 480.799,676.91 479.5,677.5C 478.757,676.092 477.923,674.759 477,673.5C 476.383,674.449 476.549,675.282 477.5,676C 476.256,676.456 475.423,675.956 475,674.5C 472.989,678.002 471.656,678.002 471,674.5C 470.031,676.734 468.698,678.734 467,680.5C 466.667,680.167 466.333,679.833 466,679.5C 464.667,681.167 463.333,682.833 462,684.5C 461.667,683.833 461.333,683.167 461,682.5C 458.619,683.75 456.619,685.417 455,687.5C 454.195,685.099 453.362,685.266 452.5,688C 451.551,688.617 450.718,688.451 450,687.5C 448.312,691.071 445.979,694.071 443,696.5C 442.282,695.549 441.449,695.383 440.5,696C 441.905,697.269 443.571,697.769 445.5,697.5C 445.833,700.5 444.5,701.833 441.5,701.5C 430.363,686.85 419.363,672.016 408.5,657C 438.75,638.959 468.916,620.792 499,602.5C 513.422,622.354 527.589,642.354 541.5,662.5 Z"/></g>
<g><path style="opacity:0.965" fill="#52967c" d="M 791.5,686.5 C 789.488,685.772 787.488,684.938 785.5,684C 786.833,683.667 788.167,683.333 789.5,683C 789,682.5 788.5,682 788,681.5C 786.431,681.847 784.598,682.014 782.5,682C 780.46,680.231 778.96,678.065 778,675.5C 777.667,675.833 777.333,676.167 777,676.5C 776.395,674.519 775.395,674.185 774,675.5C 773.667,674.5 773.333,673.5 773,672.5C 772.282,673.451 771.449,673.617 770.5,673C 771.731,671.817 771.731,670.651 770.5,669.5C 769.167,670.167 767.833,670.833 766.5,671.5C 765.289,670.726 765.289,669.893 766.5,669C 764.913,668.138 763.246,667.471 761.5,667C 759.792,665.938 759.126,664.771 759.5,663.5C 758.5,664.167 757.5,664.833 756.5,665.5C 755.808,664.975 755.308,664.308 755,663.5C 753.732,663.616 752.398,663.949 751,664.5C 750.309,662.109 749.309,662.109 748,664.5C 745.649,663.286 743.149,662.452 740.5,662C 741.696,661.346 741.696,660.846 740.5,660.5C 739.833,661.5 739.167,662.5 738.5,663.5C 737.304,663.154 737.304,662.654 738.5,662C 735.592,661.311 732.925,660.145 730.5,658.5C 729.158,659.902 728.324,659.569 728,657.5C 726.686,658.313 725.519,659.313 724.5,660.5C 721.809,659.657 719.142,658.157 716.5,656C 714.444,655.689 712.444,655.189 710.5,654.5C 708.282,655.188 706.782,654.188 706,651.5C 705.311,652.357 704.478,653.023 703.5,653.5C 702.304,653.154 702.304,652.654 703.5,652C 700.526,649.55 698.359,650.05 697,653.5C 695.848,649.573 693.848,648.906 691,651.5C 689.855,650.316 688.688,650.316 687.5,651.5C 689.222,636.304 691.389,621.637 694,607.5C 731.138,614.461 768.305,621.294 805.5,628C 800.518,647.404 795.852,666.904 791.5,686.5 Z"/></g>
<g><path style="opacity:0.997" fill="#3a8c6f" d="M 678.5,671.5 C 677.482,688.707 675.816,705.707 673.5,722.5C 673.663,720.143 673.497,717.81 673,715.5C 671.527,715.868 670.027,715.368 668.5,714C 669.833,712.16 669.666,711.66 668,712.5C 667.333,707.167 666.667,707.167 666,712.5C 662.738,711.159 662.238,711.492 664.5,713.5C 664.192,714.308 663.692,714.975 663,715.5C 661.806,713.377 661.14,711.043 661,708.5C 658.667,709.833 656.333,711.167 654,712.5C 653.292,711.619 652.458,710.953 651.5,710.5C 653.053,706.216 651.386,704.383 646.5,705C 645.663,703.989 645.33,702.822 645.5,701.5C 647.833,701.5 650.167,701.5 652.5,701.5C 652.785,699.712 652.452,698.045 651.5,696.5C 649.465,695.959 647.465,695.292 645.5,694.5C 638.271,683.014 630.604,682.681 622.5,693.5C 616.829,694.535 611.162,694.368 605.5,693C 609.323,691.359 611.323,688.526 611.5,684.5C 611.586,683.504 611.252,682.671 610.5,682C 611.416,681.626 612.25,681.126 613,680.5C 614.667,680.833 616.333,681.167 618,681.5C 618.456,680.256 617.956,679.423 616.5,679C 617.764,676.992 619.597,675.825 622,675.5C 624.158,676.451 626.325,676.951 628.5,677C 625.867,674.087 626.533,672.254 630.5,671.5C 630.329,674.797 630.995,675.131 632.5,672.5C 633.192,673.025 633.692,673.692 634,674.5C 634.318,672.939 635.151,671.772 636.5,671C 636.167,670.667 635.833,670.333 635.5,670C 636.996,669.493 638.163,669.993 639,671.5C 639.308,670.692 639.808,670.025 640.5,669.5C 642.069,670.714 642.902,672.381 643,674.5C 643.359,671.456 644.026,671.122 645,673.5C 646,671.833 647,670.167 648,668.5C 649.309,670.891 650.309,670.891 651,668.5C 652.333,671.167 653.667,671.167 655,668.5C 655.308,669.308 655.808,669.975 656.5,670.5C 656.749,669.418 656.915,668.085 657,666.5C 658.012,668.864 659.345,670.198 661,670.5C 661.483,669.552 661.649,668.552 661.5,667.5C 662.822,667.67 663.989,667.337 665,666.5C 665.333,667.5 665.667,668.5 666,669.5C 666.667,668.167 667.333,666.833 668,665.5C 668.915,666.328 669.581,667.328 670,668.5C 670.689,667.643 671.522,666.977 672.5,666.5C 674.167,667.833 675.833,667.833 677.5,666.5C 678.452,668.045 678.785,669.712 678.5,671.5 Z"/></g>
<g><path style="opacity:0.997" fill="#459175" d="M 541.5,662.5 C 547.733,670.619 553.733,678.952 559.5,687.5C 558.115,688.614 556.615,689.614 555,690.5C 554.667,690.167 554.333,689.833 554,689.5C 551.787,691.249 550.787,693.249 551,695.5C 550.586,695.043 550.086,694.709 549.5,694.5C 547.255,696.398 544.922,697.064 542.5,696.5C 540.055,695.298 537.722,695.631 535.5,697.5C 534.417,696.635 534.251,695.635 535,694.5C 539.413,692.438 539.579,690.105 535.5,687.5C 533.571,688.38 531.737,689.38 530,690.5C 522.724,685.784 516.39,686.784 511,693.5C 510.824,696.882 510.324,700.215 509.5,703.5C 505.167,706.167 500.833,708.833 496.5,711.5C 496.167,711.167 495.833,710.833 495.5,710.5C 497.48,707.79 497.814,704.957 496.5,702C 494.633,701.289 493.133,701.789 492,703.5C 490.421,707.714 489.254,712.047 488.5,716.5C 485.498,717.51 484.332,719.51 485,722.5C 487.59,723.378 489.923,723.378 492,722.5C 491.76,724.467 490.927,726.3 489.5,728C 490.979,730.744 493.146,731.244 496,729.5C 499.734,732.076 503.9,733.076 508.5,732.5C 506.401,733.612 504.067,734.279 501.5,734.5C 501.719,735.675 501.386,736.675 500.5,737.5C 500.446,736.313 500.113,734.98 499.5,733.5C 497.478,734.189 496.144,735.522 495.5,737.5C 488.643,733.905 481.643,730.572 474.5,727.5C 470.39,728.721 466.723,730.721 463.5,733.5C 455.734,723.078 448.401,712.412 441.5,701.5C 444.5,701.833 445.833,700.5 445.5,697.5C 443.571,697.769 441.905,697.269 440.5,696C 441.449,695.383 442.282,695.549 443,696.5C 445.979,694.071 448.312,691.071 450,687.5C 450.718,688.451 451.551,688.617 452.5,688C 453.362,685.266 454.195,685.099 455,687.5C 456.619,685.417 458.619,683.75 461,682.5C 461.333,683.167 461.667,683.833 462,684.5C 463.333,682.833 464.667,681.167 466,679.5C 466.333,679.833 466.667,680.167 467,680.5C 468.698,678.734 470.031,676.734 471,674.5C 471.656,678.002 472.989,678.002 475,674.5C 475.423,675.956 476.256,676.456 477.5,676C 476.549,675.282 476.383,674.449 477,673.5C 477.923,674.759 478.757,676.092 479.5,677.5C 480.799,676.91 481.632,675.91 482,674.5C 481.822,676.44 482.822,678.107 485,679.5C 486.067,678.809 487.234,678.309 488.5,678C 487.167,677.333 485.833,676.667 484.5,676C 487,675.625 489.333,674.792 491.5,673.5C 495.044,675.146 497.544,673.812 499,669.5C 499.739,671.221 500.573,672.887 501.5,674.5C 502.086,674.291 502.586,673.957 503,673.5C 504,676.167 505,676.167 506,673.5C 506.308,674.308 506.808,674.975 507.5,675.5C 509.833,674.833 512.167,674.167 514.5,673.5C 515.086,673.709 515.586,674.043 516,674.5C 517.333,672.5 518.667,670.5 520,668.5C 523,668.5 526,668.5 529,668.5C 529.582,665.332 530.582,664.999 532,667.5C 532.374,666.584 532.874,665.75 533.5,665C 531.441,663.815 531.274,662.648 533,661.5C 534.011,661.892 534.511,662.559 534.5,663.5C 536.061,662.653 537.561,662.986 539,664.5C 539.708,663.619 540.542,662.953 541.5,662.5 Z"/></g>
<g><path style="opacity:1" fill="#428f73" d="M 680.5,651.5 C 680.479,658.374 679.813,665.041 678.5,671.5C 678.785,669.712 678.452,668.045 677.5,666.5C 675.833,667.833 674.167,667.833 672.5,666.5C 671.522,666.977 670.689,667.643 670,668.5C 669.581,667.328 668.915,666.328 668,665.5C 667.333,666.833 666.667,668.167 666,669.5C 665.667,668.5 665.333,667.5 665,666.5C 663.989,667.337 662.822,667.67 661.5,667.5C 661.649,668.552 661.483,669.552 661,670.5C 659.345,670.198 658.012,668.864 657,666.5C 656.915,668.085 656.749,669.418 656.5,670.5C 655.808,669.975 655.308,669.308 655,668.5C 653.667,671.167 652.333,671.167 651,668.5C 650.309,670.891 649.309,670.891 648,668.5C 647,670.167 646,671.833 645,673.5C 644.026,671.122 643.359,671.456 643,674.5C 642.902,672.381 642.069,670.714 640.5,669.5C 639.808,670.025 639.308,670.692 639,671.5C 638.163,669.993 636.996,669.493 635.5,670C 635.833,670.333 636.167,670.667 636.5,671C 635.151,671.772 634.318,672.939 634,674.5C 633.692,673.692 633.192,673.025 632.5,672.5C 630.995,675.131 630.329,674.797 630.5,671.5C 626.533,672.254 625.867,674.087 628.5,677C 626.325,676.951 624.158,676.451 622,675.5C 619.597,675.825 617.764,676.992 616.5,679C 617.956,679.423 618.456,680.256 618,681.5C 616.333,681.167 614.667,680.833 613,680.5C 612.25,681.126 611.416,681.626 610.5,682C 611.252,682.671 611.586,683.504 611.5,684.5C 610.262,683.588 608.928,683.421 607.5,684C 604.203,686.295 601.203,688.962 598.5,692C 596.5,692.333 594.5,692.667 592.5,693C 589.413,696.882 590.413,698.716 595.5,698.5C 595.5,699.5 595.5,700.5 595.5,701.5C 590.841,701.015 589.508,702.848 591.5,707C 593.744,707.05 595.411,707.883 596.5,709.5C 593.147,707.925 590.314,708.592 588,711.5C 585.723,711.014 583.557,709.681 581.5,707.5C 580.702,707.957 580.369,708.624 580.5,709.5C 575.777,703.747 571.277,697.747 567,691.5C 566.5,681.172 566.334,670.839 566.5,660.5C 568.405,660.928 570.238,660.262 572,658.5C 572.333,658.833 572.667,659.167 573,659.5C 574.857,655.62 576.19,655.954 577,660.5C 577.915,659.672 578.581,658.672 579,657.5C 581.619,658.729 584.119,658.396 586.5,656.5C 587.192,657.025 587.692,657.692 588,658.5C 588.308,657.692 588.808,657.025 589.5,656.5C 591.325,657.571 592.492,656.904 593,654.5C 594.437,658.73 596.771,659.397 600,656.5C 600.333,656.833 600.667,657.167 601,657.5C 601.583,655.998 602.416,654.665 603.5,653.5C 603.833,654.167 604.167,654.833 604.5,655.5C 606.434,655.099 607.934,654.099 609,652.5C 609.333,653.167 609.667,653.833 610,654.5C 612.222,652.722 614.388,652.555 616.5,654C 612.81,654.424 612.643,655.258 616,656.5C 620.142,650.725 624.976,649.058 630.5,651.5C 631.77,650.438 632.937,649.438 634,648.5C 634.5,649 635,649.5 635.5,650C 638.195,650.254 640.695,650.421 643,650.5C 643.739,649.426 644.739,648.759 646,648.5C 648.481,648.953 649.814,649.953 650,651.5C 650.945,651.095 651.612,650.428 652,649.5C 652.333,650.167 652.667,650.833 653,651.5C 654.628,650.903 656.295,651.237 658,652.5C 659.362,651.075 660.862,650.242 662.5,650C 661.549,649.282 661.383,648.449 662,647.5C 663.076,649.577 664.743,650.91 667,651.5C 668.011,651.108 668.511,650.441 668.5,649.5C 669.251,650.376 669.751,651.376 670,652.5C 670.065,650.117 670.898,649.45 672.5,650.5C 673.541,648.009 674.374,648.009 675,650.5C 677.48,646.647 679.314,646.98 680.5,651.5 Z"/></g>
<g><path style="opacity:1" fill="#f7faf9" d="M 611.5,684.5 C 611.323,688.526 609.323,691.359 605.5,693C 611.162,694.368 616.829,694.535 622.5,693.5C 630.604,682.681 638.271,683.014 645.5,694.5C 647.465,695.292 649.465,695.959 651.5,696.5C 652.452,698.045 652.785,699.712 652.5,701.5C 650.167,701.5 647.833,701.5 645.5,701.5C 645.33,702.822 645.663,703.989 646.5,705C 651.386,704.383 653.053,706.216 651.5,710.5C 648.753,710.187 646.086,710.52 643.5,711.5C 641.118,716.085 637.452,718.252 632.5,718C 631.446,716.612 631.28,715.112 632,713.5C 633.586,712.624 635.086,711.624 636.5,710.5C 631.5,709.167 626.5,709.167 621.5,710.5C 616.322,718.846 609.322,720.68 600.5,716C 598.334,714.322 597.001,712.155 596.5,709.5C 595.411,707.883 593.744,707.05 591.5,707C 589.508,702.848 590.841,701.015 595.5,701.5C 595.5,700.5 595.5,699.5 595.5,698.5C 590.413,698.716 589.413,696.882 592.5,693C 594.5,692.667 596.5,692.333 598.5,692C 601.203,688.962 604.203,686.295 607.5,684C 608.928,683.421 610.262,683.588 611.5,684.5 Z"/></g>
<g><path style="opacity:1" fill="#f7faf9" d="M 723.5,721.5 C 718.625,721.763 714.292,720.43 710.5,717.5C 708.65,715.134 707.317,712.467 706.5,709.5C 704.16,709.134 702.493,707.967 701.5,706C 701.645,705.228 701.978,704.561 702.5,704C 704.134,703.506 705.801,703.34 707.5,703.5C 707.5,702.167 707.5,700.833 707.5,699.5C 706.167,699.5 704.833,699.5 703.5,699.5C 703.5,697.833 703.5,696.167 703.5,694.5C 706.247,694.813 708.914,694.48 711.5,693.5C 714.282,690.386 717.615,688.053 721.5,686.5C 724.246,687.096 725.08,688.763 724,691.5C 722.082,692.542 720.249,693.708 718.5,695C 723.411,696.246 728.411,697.413 733.5,698.5C 740.236,688.792 747.736,688.125 756,696.5C 757.018,700.63 759.684,702.964 764,703.5C 764.684,704.784 764.517,705.951 763.5,707C 761.527,707.495 759.527,707.662 757.5,707.5C 757.5,708.833 757.5,710.167 757.5,711.5C 759.167,711.5 760.833,711.5 762.5,711.5C 762.5,713.167 762.5,714.833 762.5,716.5C 757.462,715.448 753.462,716.948 750.5,721C 747.859,723.209 745.025,723.709 742,722.5C 741.333,721.167 741.333,719.833 742,718.5C 743.609,717.853 745.109,717.02 746.5,716C 742.04,714.22 737.373,713.553 732.5,714C 730.211,717.461 727.211,719.961 723.5,721.5 Z"/></g>
<g><path style="opacity:1" fill="#f8fbf9" d="M 542.5,696.5 C 542.804,697.15 543.137,697.817 543.5,698.5C 541.992,700.507 540.158,702.174 538,703.5C 537.743,707.377 536.743,711.043 535,714.5C 530.344,717.529 528.677,716.196 530,710.5C 531.489,709.576 531.656,708.576 530.5,707.5C 527.003,710.083 523.336,712.416 519.5,714.5C 519.05,719.383 517.884,724.05 516,728.5C 513.843,730.495 511.343,731.828 508.5,732.5C 503.9,733.076 499.734,732.076 496,729.5C 493.146,731.244 490.979,730.744 489.5,728C 490.927,726.3 491.76,724.467 492,722.5C 489.923,723.378 487.59,723.378 485,722.5C 484.332,719.51 485.498,717.51 488.5,716.5C 489.254,712.047 490.421,707.714 492,703.5C 493.133,701.789 494.633,701.289 496.5,702C 497.814,704.957 497.48,707.79 495.5,710.5C 495.833,710.833 496.167,711.167 496.5,711.5C 500.833,708.833 505.167,706.167 509.5,703.5C 510.324,700.215 510.824,696.882 511,693.5C 516.39,686.784 522.724,685.784 530,690.5C 531.737,689.38 533.571,688.38 535.5,687.5C 539.579,690.105 539.413,692.438 535,694.5C 534.251,695.635 534.417,696.635 535.5,697.5C 537.722,695.631 540.055,695.298 542.5,696.5 Z"/></g>
<g><path style="opacity:1" fill="#50987e" d="M 631.5,691.5 C 634.463,691.151 636.796,692.151 638.5,694.5C 635.5,695.833 632.5,695.833 629.5,694.5C 630.193,693.482 630.859,692.482 631.5,691.5 Z"/></g>
<g><path style="opacity:0.997" fill="#3f8e71" d="M 791.5,686.5 C 787.305,706.279 782.639,725.945 777.5,745.5C 769.833,741 762.167,736.5 754.5,732C 749.891,731.961 745.558,733.128 741.5,735.5C 741.808,733.076 741.474,730.743 740.5,728.5C 739.554,730.379 737.721,732.046 735,733.5C 734.25,732.874 733.416,732.374 732.5,732C 737.162,729.995 737.662,727.162 734,723.5C 733.311,724.357 732.478,725.023 731.5,725.5C 730.167,724.167 728.833,724.167 727.5,725.5C 726.571,724.311 726.238,722.978 726.5,721.5C 725.5,721.5 724.5,721.5 723.5,721.5C 727.211,719.961 730.211,717.461 732.5,714C 737.373,713.553 742.04,714.22 746.5,716C 745.109,717.02 743.609,717.853 742,718.5C 741.333,719.833 741.333,721.167 742,722.5C 745.025,723.709 747.859,723.209 750.5,721C 753.462,716.948 757.462,715.448 762.5,716.5C 762.5,714.833 762.5,713.167 762.5,711.5C 760.833,711.5 759.167,711.5 757.5,711.5C 757.5,710.167 757.5,708.833 757.5,707.5C 759.527,707.662 761.527,707.495 763.5,707C 764.517,705.951 764.684,704.784 764,703.5C 759.684,702.964 757.018,700.63 756,696.5C 747.736,688.125 740.236,688.792 733.5,698.5C 728.411,697.413 723.411,696.246 718.5,695C 720.249,693.708 722.082,692.542 724,691.5C 725.08,688.763 724.246,687.096 721.5,686.5C 717.615,688.053 714.282,690.386 711.5,693.5C 708.914,694.48 706.247,694.813 703.5,694.5C 703.5,696.167 703.5,697.833 703.5,699.5C 704.833,699.5 706.167,699.5 707.5,699.5C 707.5,700.833 707.5,702.167 707.5,703.5C 705.801,703.34 704.134,703.506 702.5,704C 701.978,704.561 701.645,705.228 701.5,706C 702.493,707.967 704.16,709.134 706.5,709.5C 707.317,712.467 708.65,715.134 710.5,717.5C 709.85,717.804 709.183,718.137 708.5,718.5C 706.079,715.595 703.912,712.595 702,709.5C 700.042,710.952 698.042,711.285 696,710.5C 695.966,712.18 695.799,713.68 695.5,715C 696.996,715.507 698.163,715.007 699,713.5C 700.023,718.003 698.856,719.003 695.5,716.5C 694.833,717.5 694.167,718.5 693.5,719.5C 692.304,719.154 692.304,718.654 693.5,718C 692.151,717.228 691.318,716.061 691,714.5C 689.174,712.926 687.007,712.093 684.5,712C 685.696,711.346 685.696,710.846 684.5,710.5C 681.387,712.015 679.387,714.349 678.5,717.5C 681.314,695.47 684.314,673.47 687.5,651.5C 688.688,650.316 689.855,650.316 691,651.5C 693.848,648.906 695.848,649.573 697,653.5C 698.359,650.05 700.526,649.55 703.5,652C 702.304,652.654 702.304,653.154 703.5,653.5C 704.478,653.023 705.311,652.357 706,651.5C 706.782,654.188 708.282,655.188 710.5,654.5C 712.444,655.189 714.444,655.689 716.5,656C 719.142,658.157 721.809,659.657 724.5,660.5C 725.519,659.313 726.686,658.313 728,657.5C 728.324,659.569 729.158,659.902 730.5,658.5C 732.925,660.145 735.592,661.311 738.5,662C 737.304,662.654 737.304,663.154 738.5,663.5C 739.167,662.5 739.833,661.5 740.5,660.5C 741.696,660.846 741.696,661.346 740.5,662C 743.149,662.452 745.649,663.286 748,664.5C 749.309,662.109 750.309,662.109 751,664.5C 752.398,663.949 753.732,663.616 755,663.5C 755.308,664.308 755.808,664.975 756.5,665.5C 757.5,664.833 758.5,664.167 759.5,663.5C 759.126,664.771 759.792,665.938 761.5,667C 763.246,667.471 764.913,668.138 766.5,669C 765.289,669.893 765.289,670.726 766.5,671.5C 767.833,670.833 769.167,670.167 770.5,669.5C 771.731,670.651 771.731,671.817 770.5,673C 771.449,673.617 772.282,673.451 773,672.5C 773.333,673.5 773.667,674.5 774,675.5C 775.395,674.185 776.395,674.519 777,676.5C 777.333,676.167 777.667,675.833 778,675.5C 778.96,678.065 780.46,680.231 782.5,682C 784.598,682.014 786.431,681.847 788,681.5C 788.5,682 789,682.5 789.5,683C 788.167,683.333 786.833,683.667 785.5,684C 787.488,684.938 789.488,685.772 791.5,686.5 Z"/></g>
<g><path style="opacity:1" fill="#4c957a" d="M 518.5,693.5 C 520.199,693.34 521.866,693.506 523.5,694C 521.679,695.743 519.679,697.243 517.5,698.5C 516.348,696.603 516.681,694.936 518.5,693.5 Z"/></g>
<g><path style="opacity:1" fill="#479377" d="M 743.5,696.5 C 746.463,696.151 748.796,697.151 750.5,699.5C 750,699.833 749.5,700.167 749,700.5C 746.536,699.839 744.036,699.339 741.5,699C 742.381,698.292 743.047,697.458 743.5,696.5 Z"/></g>
<g><path style="opacity:1" fill="#459276" d="M 602.5,699.5 C 608.167,699.5 613.833,699.5 619.5,699.5C 619.67,700.822 619.337,701.989 618.5,703C 613.191,702.904 607.858,702.738 602.5,702.5C 602.5,701.5 602.5,700.5 602.5,699.5 Z"/></g>
<g><path style="opacity:1" fill="#50977d" d="M 527.5,698.5 C 529.225,698.843 529.725,699.843 529,701.5C 525.333,703.833 521.667,706.167 518,708.5C 517.333,707.5 517.333,706.5 518,705.5C 521.145,703.024 524.312,700.69 527.5,698.5 Z"/></g>
<g><path style="opacity:1" fill="#439175" d="M 625.5,700.5 C 630.181,700.669 634.848,701.002 639.5,701.5C 639.5,702.5 639.5,703.5 639.5,704.5C 634.797,704.563 630.13,704.229 625.5,703.5C 625.5,702.5 625.5,701.5 625.5,700.5 Z"/></g>
<g><path style="opacity:1" fill="#439174" d="M 714.5,701.5 C 719.82,702.26 725.153,702.927 730.5,703.5C 730.5,704.5 730.5,705.5 730.5,706.5C 724.723,706.145 719.057,705.145 713.5,703.5C 713.863,702.817 714.196,702.15 714.5,701.5 Z"/></g>
<g><path style="opacity:1" fill="#489378" d="M 737.5,704.5 C 742.114,705.445 746.781,706.112 751.5,706.5C 751.5,707.5 751.5,708.5 751.5,709.5C 746.245,709.649 741.245,708.649 736.5,706.5C 736.863,705.817 737.196,705.15 737.5,704.5 Z"/></g>
<g><path style="opacity:0.995" fill="#308869" d="M 559.5,687.5 C 573.137,705.985 586.637,724.652 600,743.5C 600.688,744.332 600.521,744.998 599.5,745.5C 586.111,739.206 572.611,733.206 559,727.5C 546.695,735.123 534.362,742.789 522,750.5C 513.079,746.289 504.245,741.956 495.5,737.5C 496.144,735.522 497.478,734.189 499.5,733.5C 500.113,734.98 500.446,736.313 500.5,737.5C 501.386,736.675 501.719,735.675 501.5,734.5C 504.067,734.279 506.401,733.612 508.5,732.5C 511.343,731.828 513.843,730.495 516,728.5C 517.884,724.05 519.05,719.383 519.5,714.5C 523.336,712.416 527.003,710.083 530.5,707.5C 531.656,708.576 531.489,709.576 530,710.5C 528.677,716.196 530.344,717.529 535,714.5C 536.743,711.043 537.743,707.377 538,703.5C 540.158,702.174 541.992,700.507 543.5,698.5C 543.137,697.817 542.804,697.15 542.5,696.5C 544.922,697.064 547.255,696.398 549.5,694.5C 550.086,694.709 550.586,695.043 551,695.5C 550.787,693.249 551.787,691.249 554,689.5C 554.333,689.833 554.667,690.167 555,690.5C 556.615,689.614 558.115,688.614 559.5,687.5 Z"/></g>
<g><path style="opacity:1" fill="#489478" d="M 713.5,711.5 C 717.456,710.293 721.456,710.626 725.5,712.5C 721.116,716.622 717.116,716.289 713.5,711.5 Z"/></g>
<g><path style="opacity:1" fill="#4d967b" d="M 509.5,709.5 C 511.981,710.696 511.981,712.196 509.5,714C 505.833,716.167 502.167,718.333 498.5,720.5C 497.692,720.192 497.025,719.692 496.5,719C 500.901,715.812 505.234,712.645 509.5,709.5 Z"/></g>
<g><path style="opacity:0.995" fill="#2e8768" d="M 710.5,717.5 C 714.292,720.43 718.625,721.763 723.5,721.5C 724.5,721.5 725.5,721.5 726.5,721.5C 726.238,722.978 726.571,724.311 727.5,725.5C 728.833,724.167 730.167,724.167 731.5,725.5C 732.478,725.023 733.311,724.357 734,723.5C 737.662,727.162 737.162,729.995 732.5,732C 733.416,732.374 734.25,732.874 735,733.5C 737.721,732.046 739.554,730.379 740.5,728.5C 741.474,730.743 741.808,733.076 741.5,735.5C 727.943,741.354 714.277,747.021 700.5,752.5C 692.833,745.833 685.167,739.167 677.5,732.5C 676.913,727.503 677.246,722.503 678.5,717.5C 679.387,714.349 681.387,712.015 684.5,710.5C 685.696,710.846 685.696,711.346 684.5,712C 687.007,712.093 689.174,712.926 691,714.5C 691.318,716.061 692.151,717.228 693.5,718C 692.304,718.654 692.304,719.154 693.5,719.5C 694.167,718.5 694.833,717.5 695.5,716.5C 698.856,719.003 700.023,718.003 699,713.5C 698.163,715.007 696.996,715.507 695.5,715C 695.799,713.68 695.966,712.18 696,710.5C 698.042,711.285 700.042,710.952 702,709.5C 703.912,712.595 706.079,715.595 708.5,718.5C 709.183,718.137 709.85,717.804 710.5,717.5 Z"/></g>
<g><path style="opacity:0.999" fill="#2d8768" d="M 596.5,709.5 C 597.001,712.155 598.334,714.322 600.5,716C 609.322,720.68 616.322,718.846 621.5,710.5C 626.5,709.167 631.5,709.167 636.5,710.5C 635.086,711.624 633.586,712.624 632,713.5C 631.28,715.112 631.446,716.612 632.5,718C 637.452,718.252 641.118,716.085 643.5,711.5C 646.086,710.52 648.753,710.187 651.5,710.5C 652.458,710.953 653.292,711.619 654,712.5C 656.333,711.167 658.667,709.833 661,708.5C 661.14,711.043 661.806,713.377 663,715.5C 663.692,714.975 664.192,714.308 664.5,713.5C 662.238,711.492 662.738,711.159 666,712.5C 666.667,707.167 667.333,707.167 668,712.5C 669.666,711.66 669.833,712.16 668.5,714C 670.027,715.368 671.527,715.868 673,715.5C 673.497,717.81 673.663,720.143 673.5,722.5C 673.664,725.187 673.497,727.854 673,730.5C 652.501,738.222 631.835,745.556 611,752.5C 599.891,738.882 589.725,724.549 580.5,709.5C 580.369,708.624 580.702,707.957 581.5,707.5C 583.557,709.681 585.723,711.014 588,711.5C 590.314,708.592 593.147,707.925 596.5,709.5 Z"/></g>
<g><path style="opacity:1" fill="#378c6e" d="M 602.5,709.5 C 606.646,708.353 610.98,708.186 615.5,709C 611.315,713.48 606.982,713.647 602.5,709.5 Z"/></g>
<g><path style="opacity:1" fill="#3e8e71" d="M 510.5,719.5 C 513.094,721.729 512.76,723.895 509.5,726C 507.098,726.814 504.765,726.647 502.5,725.5C 505.235,723.479 507.901,721.479 510.5,719.5 Z"/></g>
<g><path style="opacity:0.967" fill="#65456a" d="M 476.5,732.5 C 474.784,732.629 473.117,732.962 471.5,733.5C 472.315,732.163 473.482,731.163 475,730.5C 475.717,731.044 476.217,731.711 476.5,732.5 Z"/></g>
<g><path style="opacity:1" fill="#b11f4c" d="M 476.5,732.5 C 515.1,802.7 553.433,873.034 591.5,943.5C 588.15,943.665 584.817,943.498 581.5,943C 566.267,920.015 550.934,897.182 535.5,874.5C 508.327,832.149 480.661,790.149 452.5,748.5C 458.613,743.27 464.946,738.27 471.5,733.5C 473.117,732.962 474.784,732.629 476.5,732.5 Z"/></g>
<g><path style="opacity:0.659" fill="#593e5b" d="M 484.5,734.5 C 483.167,734.5 482.5,735.167 482.5,736.5C 478.5,731.167 479.167,730.5 484.5,734.5 Z"/></g>
<g><path style="opacity:1" fill="#972539" d="M 484.5,734.5 C 487.76,735.774 490.76,737.44 493.5,739.5C 493.281,740.675 493.614,741.675 494.5,742.5C 503.194,747.179 511.86,751.846 520.5,756.5C 536.204,791.257 551.537,826.257 566.5,861.5C 566.189,862.478 565.522,863.145 564.5,863.5C 562.657,863.245 560.657,863.078 558.5,863C 559.654,862.086 559.487,861.253 558,860.5C 556.367,861.83 554.867,862.496 553.5,862.5C 554.651,863.731 555.817,863.731 557,862.5C 559.236,864.676 558.736,866.009 555.5,866.5C 554.056,865.019 553.389,865.352 553.5,867.5C 529.583,824.001 505.916,780.334 482.5,736.5C 482.5,735.167 483.167,734.5 484.5,734.5 Z"/></g>
<g><path style="opacity:1" fill="#b11f4c" d="M 602.5,944.5 C 590.782,916.728 578.782,889.062 566.5,861.5C 551.537,826.257 536.204,791.257 520.5,756.5C 520.5,755.833 520.5,755.167 520.5,754.5C 521.496,754.414 522.329,754.748 523,755.5C 533.493,747.815 544.326,740.815 555.5,734.5C 573.36,804.271 591.693,873.938 610.5,943.5C 610.333,944.167 610.167,944.833 610,945.5C 607.619,944.565 605.119,944.232 602.5,944.5 Z"/></g>
<g><path style="opacity:1" fill="#982437" d="M 568.5,736.5 C 568.5,737.5 568.5,738.5 568.5,739.5C 582.919,745.54 597.252,751.874 611.5,758.5C 612.183,758.137 612.85,757.804 613.5,757.5C 613.5,767.833 613.5,778.167 613.5,788.5C 613.667,807.503 613.5,826.503 613,845.5C 612.612,847.715 611.612,849.048 610,849.5C 609.311,848.643 608.478,847.977 607.5,847.5C 606.5,848.833 605.5,848.833 604.5,847.5C 603.707,848.355 604.04,849.189 605.5,850C 603.925,849.621 602.425,849.788 601,850.5C 600.683,848.699 600.016,848.366 599,849.5C 597.956,847.285 597.29,844.952 597,842.5C 595.612,841.446 594.112,841.28 592.5,842C 593.308,842.308 593.975,842.808 594.5,843.5C 593.833,843.833 593.167,844.167 592.5,844.5C 592.709,845.086 593.043,845.586 593.5,846C 591.779,846.739 590.113,847.573 588.5,848.5C 589.376,849.251 590.376,849.751 591.5,850C 588.833,851 588.833,852 591.5,853C 589.979,856.017 590.979,857.85 594.5,858.5C 594.154,859.696 593.654,859.696 593,858.5C 592.487,859.527 591.987,860.527 591.5,861.5C 587.231,847.764 583.565,833.764 580.5,819.5C 580.725,814.752 580.225,810.085 579,805.5C 578.329,804.748 577.496,804.414 576.5,804.5C 576.5,804.167 576.5,803.833 576.5,803.5C 576.665,800.482 576.498,797.482 576,794.5C 572.844,782.876 569.844,771.209 567,759.5C 566.584,757.45 565.417,756.116 563.5,755.5C 563.5,755.167 563.5,754.833 563.5,754.5C 564.832,750.326 564.165,746.492 561.5,743C 562.573,741.75 562.573,740.416 561.5,739C 562.833,736.016 564.667,735.849 567,738.5C 567.278,737.584 567.778,736.918 568.5,736.5 Z"/></g>
<g><path style="opacity:0.158" fill="#24435d" d="M 666.5,740.5 C 666.672,739.508 666.338,738.842 665.5,738.5C 666.238,736.24 667.238,736.073 668.5,738C 667.934,738.995 667.267,739.828 666.5,740.5 Z"/></g>
<g><path style="opacity:1" fill="#962537" d="M 774.5,749.5 C 760.918,769.662 747.585,789.996 734.5,810.5C 733.504,810.414 732.671,810.748 732,811.5C 731.333,808.833 730.667,808.833 730,811.5C 728.472,808.159 726.472,808.159 724,811.5C 721.964,810.898 720.13,809.898 718.5,808.5C 717.895,809.587 718.228,810.754 719.5,812C 716.305,814.239 714.305,813.406 713.5,809.5C 713.846,808.151 714.179,806.817 714.5,805.5C 714.328,804.508 714.662,803.842 715.5,803.5C 716.496,803.586 717.329,803.252 718,802.5C 725.133,789.353 732.3,776.187 739.5,763C 738.423,762.53 737.423,762.697 736.5,763.5C 740.966,753.903 745.966,744.569 751.5,735.5C 759.056,740.44 766.722,745.107 774.5,749.5 Z"/></g>
<g><path style="opacity:0.185" fill="#24435d" d="M 816.5,737.5 C 817.251,736.427 818.251,736.26 819.5,737C 818.956,737.717 818.289,738.217 817.5,738.5C 817.5,737.833 817.167,737.5 816.5,737.5 Z"/></g>
<g><path style="opacity:0.971" fill="#803242" d="M 568.5,736.5 C 567.778,736.918 567.278,737.584 567,738.5C 564.667,735.849 562.833,736.016 561.5,739C 562.573,740.416 562.573,741.75 561.5,743C 564.165,746.492 564.832,750.326 563.5,754.5C 561.416,747.02 559.083,739.52 556.5,732C 557.5,731.333 558.5,731.333 559.5,732C 562.648,733.424 565.648,734.924 568.5,736.5 Z"/></g>
<g><path style="opacity:1" fill="#962638" d="M 698.5,757.5 C 697.322,758.662 696.155,759.662 695,760.5C 685.749,786.654 676.249,812.654 666.5,838.5C 665.448,838.649 664.448,838.483 663.5,838C 664.696,837.346 664.696,836.846 663.5,836.5C 661.576,836.106 659.743,836.773 658,838.5C 657.275,837.941 656.442,837.608 655.5,837.5C 652.452,839.504 649.452,841.504 646.5,843.5C 655.072,807.21 664.572,771.21 675,735.5C 683.031,742.7 690.864,750.033 698.5,757.5 Z"/></g>
<g><path style="opacity:1" fill="#b0204c" d="M 816.5,737.5 C 817.167,737.5 817.5,737.833 817.5,738.5C 763.809,807.852 710.143,877.185 656.5,946.5C 655.5,946.5 654.5,946.5 653.5,946.5C 652.833,946.5 652.167,946.5 651.5,946.5C 649.958,945.837 648.291,945.17 646.5,944.5C 664.51,917.138 682.51,889.805 700.5,862.5C 711.833,845.167 723.167,827.833 734.5,810.5C 747.585,789.996 760.918,769.662 774.5,749.5C 788.401,745.191 802.401,741.191 816.5,737.5 Z"/></g>
<g><path style="opacity:1" fill="#b11f4c" d="M 665.5,738.5 C 666.338,738.842 666.672,739.508 666.5,740.5C 660.476,766.597 654.142,792.597 647.5,818.5C 646.883,818.611 646.383,818.944 646,819.5C 645.505,821.473 645.338,823.473 645.5,825.5C 636.299,864.637 626.632,903.637 616.5,942.5C 614.835,891.341 613.835,840.008 613.5,788.5C 613.5,778.167 613.5,767.833 613.5,757.5C 614.492,757.672 615.158,757.338 615.5,756.5C 631.957,749.939 648.624,743.939 665.5,738.5 Z"/></g>
<g><path style="opacity:0.467" fill="#553a51" d="M 742.5,741.5 C 742.158,740.662 741.492,740.328 740.5,740.5C 741.635,738.912 742.969,738.579 744.5,739.5C 744.145,740.522 743.478,741.189 742.5,741.5 Z"/></g>
<g><path style="opacity:0.965" fill="#813041" d="M 493.5,739.5 C 502.991,743.743 511.991,748.743 520.5,754.5C 520.5,755.167 520.5,755.833 520.5,756.5C 511.86,751.846 503.194,747.179 494.5,742.5C 493.614,741.675 493.281,740.675 493.5,739.5 Z"/></g>
<g><path style="opacity:1" fill="#b01f4c" d="M 740.5,740.5 C 741.492,740.328 742.158,740.662 742.5,741.5C 707.281,809.604 671.781,877.604 636,945.5C 635.329,946.252 634.496,946.586 633.5,946.5C 631.735,945.539 629.735,945.205 627.5,945.5C 640.943,910.106 653.943,874.439 666.5,838.5C 676.249,812.654 685.749,786.654 695,760.5C 696.155,759.662 697.322,758.662 698.5,757.5C 712.347,751.44 726.347,745.774 740.5,740.5 Z"/></g>
<g><path style="opacity:1" fill="#972537" d="M 418.5,740.5 C 418.414,741.496 418.748,742.329 419.5,743C 428.315,745.245 437.148,747.412 446,749.5C 447.256,749.352 448.423,749.018 449.5,748.5C 450.5,748.5 451.5,748.5 452.5,748.5C 480.661,790.149 508.327,832.149 535.5,874.5C 534.516,877.07 533.349,877.07 532,874.5C 531.667,874.833 531.333,875.167 531,875.5C 531.077,874.262 530.911,873.262 530.5,872.5C 529.749,873.376 529.249,874.376 529,875.5C 528.667,874.833 528.333,874.167 528,873.5C 526.74,876.428 524.573,878.261 521.5,879C 523.618,880.142 525.618,880.642 527.5,880.5C 527.833,881 528.167,881.5 528.5,882C 527.586,883.406 526.92,884.906 526.5,886.5C 514.271,871.722 502.271,856.722 490.5,841.5C 489.587,839.914 489.587,838.414 490.5,837C 464.558,805.568 439.224,773.735 414.5,741.5C 415.689,740.571 417.022,740.238 418.5,740.5 Z"/></g>
<g><path style="opacity:0.966" fill="#7f3142" d="M 418.5,740.5 C 429.053,742.721 439.386,745.387 449.5,748.5C 448.423,749.018 447.256,749.352 446,749.5C 437.148,747.412 428.315,745.245 419.5,743C 418.748,742.329 418.414,741.496 418.5,740.5 Z"/></g>
<g><path style="opacity:0.966" fill="#813141" d="M 568.5,736.5 C 583.019,742.51 597.352,749.01 611.5,756C 612.793,756.49 614.127,756.657 615.5,756.5C 615.158,757.338 614.492,757.672 613.5,757.5C 612.85,757.804 612.183,758.137 611.5,758.5C 597.252,751.874 582.919,745.54 568.5,739.5C 568.5,738.5 568.5,737.5 568.5,736.5 Z"/></g>
<g><path style="opacity:0.971" fill="#862e3f" d="M 715.5,803.5 C 721.994,789.843 728.994,776.51 736.5,763.5C 737.423,762.697 738.423,762.53 739.5,763C 732.3,776.187 725.133,789.353 718,802.5C 717.329,803.252 716.496,803.586 715.5,803.5 Z"/></g>
<g><path style="opacity:0.968" fill="#813142" d="M 563.5,755.5 C 565.417,756.116 566.584,757.45 567,759.5C 569.844,771.209 572.844,782.876 576,794.5C 576.498,797.482 576.665,800.482 576.5,803.5C 571.566,787.773 567.233,771.773 563.5,755.5 Z"/></g>
<g><path style="opacity:0.963" fill="#803245" d="M 576.5,804.5 C 577.496,804.414 578.329,804.748 579,805.5C 580.225,810.085 580.725,814.752 580.5,819.5C 578.722,814.728 577.389,809.728 576.5,804.5 Z"/></g>
<g><path style="opacity:0.999" fill="#9a243d" d="M 714.5,805.5 C 714.179,806.817 713.846,808.151 713.5,809.5C 714.305,813.406 716.305,814.239 719.5,812C 718.228,810.754 717.895,809.587 718.5,808.5C 720.13,809.898 721.964,810.898 724,811.5C 726.472,808.159 728.472,808.159 730,811.5C 730.667,808.833 731.333,808.833 732,811.5C 732.671,810.748 733.504,810.414 734.5,810.5C 723.167,827.833 711.833,845.167 700.5,862.5C 698.97,861.933 697.47,861.267 696,860.5C 695.71,862.044 695.044,863.377 694,864.5C 692.345,864.198 691.012,862.864 690,860.5C 689.692,861.308 689.192,861.975 688.5,862.5C 687.264,861.754 685.93,861.421 684.5,861.5C 688.249,853.668 692.249,846.001 696.5,838.5C 697.906,838.027 698.573,837.027 698.5,835.5C 699.992,831.182 701.992,827.182 704.5,823.5C 705.906,823.027 706.573,822.027 706.5,820.5C 708.407,815.016 711.073,810.016 714.5,805.5 Z"/></g>
<g><path style="opacity:0.977" fill="#862f3e" d="M 418.5,740.5 C 417.022,740.238 415.689,740.571 414.5,741.5C 439.224,773.735 464.558,805.568 490.5,837C 489.587,838.414 489.587,839.914 490.5,841.5C 463.082,807.014 435.415,772.681 407.5,738.5C 408,738.167 408.5,737.833 409,737.5C 412.356,738.29 415.523,739.29 418.5,740.5 Z"/></g>
<g><path style="opacity:0.761" fill="#6b374e" d="M 647.5,818.5 C 647.279,821.067 646.612,823.401 645.5,825.5C 645.338,823.473 645.505,821.473 646,819.5C 646.383,818.944 646.883,818.611 647.5,818.5 Z"/></g>
<g><path style="opacity:0.431" fill="#4a3c58" d="M 706.5,820.5 C 706.573,822.027 705.906,823.027 704.5,823.5C 704.427,821.973 705.094,820.973 706.5,820.5 Z"/></g>
<g><path style="opacity:0.424" fill="#4a3d5a" d="M 698.5,835.5 C 698.573,837.027 697.906,838.027 696.5,838.5C 696.427,836.973 697.094,835.973 698.5,835.5 Z"/></g>
<g><path style="opacity:0.998" fill="#a22243" d="M 666.5,838.5 C 653.943,874.439 640.943,910.106 627.5,945.5C 624.539,945.536 622.206,944.536 620.5,942.5C 628.721,909.279 637.387,876.279 646.5,843.5C 649.452,841.504 652.452,839.504 655.5,837.5C 656.442,837.608 657.275,837.941 658,838.5C 659.743,836.773 661.576,836.106 663.5,836.5C 664.696,836.846 664.696,837.346 663.5,838C 664.448,838.483 665.448,838.649 666.5,838.5 Z"/></g>
<g><path style="opacity:0.996" fill="#a12344" d="M 700.5,862.5 C 682.51,889.805 664.51,917.138 646.5,944.5C 648.291,945.17 649.958,945.837 651.5,946.5C 647.418,946.656 643.418,946.156 639.5,945C 654.147,916.866 669.147,889.033 684.5,861.5C 685.93,861.421 687.264,861.754 688.5,862.5C 689.192,861.975 689.692,861.308 690,860.5C 691.012,862.864 692.345,864.198 694,864.5C 695.044,863.377 695.71,862.044 696,860.5C 697.47,861.267 698.97,861.933 700.5,862.5 Z"/></g>
<g><path style="opacity:1" fill="#a22344" d="M 613.5,788.5 C 613.835,840.008 614.835,891.341 616.5,942.5C 616.301,944.96 615.635,947.293 614.5,949.5C 606.206,920.325 598.54,890.991 591.5,861.5C 591.987,860.527 592.487,859.527 593,858.5C 593.654,859.696 594.154,859.696 594.5,858.5C 590.979,857.85 589.979,856.017 591.5,853C 588.833,852 588.833,851 591.5,850C 590.376,849.751 589.376,849.251 588.5,848.5C 590.113,847.573 591.779,846.739 593.5,846C 593.043,845.586 592.709,845.086 592.5,844.5C 593.167,844.167 593.833,843.833 594.5,843.5C 593.975,842.808 593.308,842.308 592.5,842C 594.112,841.28 595.612,841.446 597,842.5C 597.29,844.952 597.956,847.285 599,849.5C 600.016,848.366 600.683,848.699 601,850.5C 602.425,849.788 603.925,849.621 605.5,850C 604.04,849.189 603.707,848.355 604.5,847.5C 605.5,848.833 606.5,848.833 607.5,847.5C 608.478,847.977 609.311,848.643 610,849.5C 611.612,849.048 612.612,847.715 613,845.5C 613.5,826.503 613.667,807.503 613.5,788.5 Z"/></g>
<g><path style="opacity:0.997" fill="#a42246" d="M 566.5,861.5 C 578.782,889.062 590.782,916.728 602.5,944.5C 599.753,944.813 597.086,944.48 594.5,943.5C 580.821,918.14 567.154,892.806 553.5,867.5C 553.389,865.352 554.056,865.019 555.5,866.5C 558.736,866.009 559.236,864.676 557,862.5C 555.817,863.731 554.651,863.731 553.5,862.5C 554.867,862.496 556.367,861.83 558,860.5C 559.487,861.253 559.654,862.086 558.5,863C 560.657,863.078 562.657,863.245 564.5,863.5C 565.522,863.145 566.189,862.478 566.5,861.5 Z"/></g>
<g><path style="opacity:1" fill="#a12345" d="M 535.5,874.5 C 550.934,897.182 566.267,920.015 581.5,943C 584.817,943.498 588.15,943.665 591.5,943.5C 584.989,944.818 578.322,944.818 571.5,943.5C 556.251,924.651 541.251,905.651 526.5,886.5C 526.92,884.906 527.586,883.406 528.5,882C 528.167,881.5 527.833,881 527.5,880.5C 525.618,880.642 523.618,880.142 521.5,879C 524.573,878.261 526.74,876.428 528,873.5C 528.333,874.167 528.667,874.833 529,875.5C 529.249,874.376 529.749,873.376 530.5,872.5C 530.911,873.262 531.077,874.262 531,875.5C 531.333,875.167 531.667,874.833 532,874.5C 533.349,877.07 534.516,877.07 535.5,874.5 Z"/></g>
<g><path style="opacity:0.98" fill="#f2ebdf" d="M 610.5,957.5 C 570.12,963.05 547.786,986.217 543.5,1027C 543.78,1034.17 545.113,1041.01 547.5,1047.5C 555.314,1070.81 570.981,1086.31 594.5,1094C 600.771,1095.31 607.104,1096.14 613.5,1096.5C 613.5,1096.83 613.5,1097.17 613.5,1097.5C 612.312,1098.68 611.145,1098.68 610,1097.5C 609.271,1108.58 609.771,1119.58 611.5,1130.5C 611.135,1131.9 610.301,1132.9 609,1133.5C 548.639,1089.23 482.805,1054.73 411.5,1030C 376.367,1018.81 340.367,1012.81 303.5,1012C 302.167,1010.33 302.167,1008.67 303.5,1007C 369.288,975.939 434.955,944.606 500.5,913C 519.548,911.128 536.548,916.128 551.5,928C 558.399,932.963 564.732,938.63 570.5,945C 582.808,946.086 595.141,946.752 607.5,947C 607.829,950.892 608.829,954.392 610.5,957.5 Z"/></g>
<g><path style="opacity:0.973" fill="#f3ece0" d="M 787.5,946.5 C 787.842,947.338 788.508,947.672 789.5,947.5C 809.179,958.34 829.179,968.673 849.5,978.5C 849.842,979.338 850.508,979.672 851.5,979.5C 851.842,980.338 852.508,980.672 853.5,980.5C 872.512,991.007 891.845,1001.01 911.5,1010.5C 915.849,1013.34 920.516,1015.67 925.5,1017.5C 925.5,1019.17 925.5,1020.83 925.5,1022.5C 927.099,1022.23 928.432,1022.57 929.5,1023.5C 927.5,1023.5 925.5,1023.5 923.5,1023.5C 886.651,1021.81 850.318,1026.81 814.5,1038.5C 813.914,1038.29 813.414,1037.96 813,1037.5C 807.565,1039.03 802.399,1041.03 797.5,1043.5C 792.423,1044.47 787.59,1046.14 783,1048.5C 782.667,1048.17 782.333,1047.83 782,1047.5C 779.942,1048.23 778.109,1049.23 776.5,1050.5C 765.522,1054.65 754.522,1058.82 743.5,1063C 733.215,1067.66 723.881,1072.16 715.5,1076.5C 714.508,1076.33 713.842,1076.66 713.5,1077.5C 712.508,1077.33 711.842,1077.66 711.5,1078.5C 707.345,1079.74 703.678,1081.74 700.5,1084.5C 689.889,1088.8 679.889,1094.14 670.5,1100.5C 668.973,1100.43 667.973,1101.09 667.5,1102.5C 666.508,1102.33 665.842,1102.66 665.5,1103.5C 663.973,1103.43 662.973,1104.09 662.5,1105.5C 658.553,1106.32 654.886,1108.32 651.5,1111.5C 650.508,1111.33 649.842,1111.66 649.5,1112.5C 647.973,1112.43 646.973,1113.09 646.5,1114.5C 644.973,1114.43 643.973,1115.09 643.5,1116.5C 634.543,1121.48 625.877,1126.81 617.5,1132.5C 616.221,1133.97 614.554,1134.63 612.5,1134.5C 613.846,1122.32 614.846,1110.15 615.5,1098C 614.906,1097.54 614.239,1097.37 613.5,1097.5C 613.5,1097.17 613.5,1096.83 613.5,1096.5C 649.466,1096.06 673.299,1078.72 685,1044.5C 688.474,1032.96 688.307,1021.63 684.5,1010.5C 675.976,980.058 655.976,962.891 624.5,959C 623.307,957.905 621.973,957.072 620.5,956.5C 620.5,953.833 620.5,951.167 620.5,948.5C 631.515,948.046 642.515,947.379 653.5,946.5C 654.5,946.5 655.5,946.5 656.5,946.5C 656.56,947.043 656.893,947.376 657.5,947.5C 660.005,945.747 662.671,944.247 665.5,943C 669.402,937.596 674.069,933.096 679.5,929.5C 691.299,922.606 703.966,917.939 717.5,915.5C 721.486,916.11 725.486,916.61 729.5,917C 748.731,927.115 768.064,936.948 787.5,946.5 Z"/></g>
<g><path style="opacity:0.004" fill="#f4eee1" d="M 734.5,917.5 C 735.833,918.167 735.833,918.167 734.5,917.5 Z"/></g>
<g><path style="opacity:0.004" fill="#f4eee1" d="M 697.5,918.5 C 698.833,919.167 698.833,919.167 697.5,918.5 Z"/></g>
<g><path style="opacity:0.004" fill="#f4eee1" d="M 736.5,918.5 C 737.833,919.167 737.833,919.167 736.5,918.5 Z"/></g>
<g><path style="opacity:0.004" fill="#f4eee1" d="M 738.5,919.5 C 739.833,920.167 739.833,920.167 738.5,919.5 Z"/></g>
<g><path style="opacity:0.004" fill="#f4eee1" d="M 740.5,920.5 C 741.833,921.167 741.833,921.167 740.5,920.5 Z"/></g>
<g><path style="opacity:0.004" fill="#f4eee1" d="M 742.5,921.5 C 743.833,922.167 743.833,922.167 742.5,921.5 Z"/></g>
<g><path style="opacity:0.004" fill="#212537" d="M 679.5,927.5 C 680.833,928.167 680.833,928.167 679.5,927.5 Z"/></g>
<g><path style="opacity:0.004" fill="#f4eee1" d="M 679.5,928.5 C 679.5,928.833 679.5,929.167 679.5,929.5C 678.83,929.019 678.83,928.685 679.5,928.5 Z"/></g>
<g><path style="opacity:0.004" fill="#212537" d="M 676.5,929.5 C 677.833,930.167 677.833,930.167 676.5,929.5 Z"/></g>
<g><path style="opacity:0.004" fill="#f4eee1" d="M 761.5,931.5 C 762.833,932.167 762.833,932.167 761.5,931.5 Z"/></g>
<g><path style="opacity:0.004" fill="#f4eee1" d="M 672.5,932.5 C 673.833,933.167 673.833,933.167 672.5,932.5 Z"/></g>
<g><path style="opacity:0.004" fill="#f4eee1" d="M 763.5,932.5 C 764.833,933.167 764.833,933.167 763.5,932.5 Z"/></g>
<g><path style="opacity:0.004" fill="#f4eee1" d="M 765.5,933.5 C 766.833,934.167 766.833,934.167 765.5,933.5 Z"/></g>
<g><path style="opacity:1" fill="#99958d" d="M 510.5,934.5 C 512.827,934.247 514.827,934.914 516.5,936.5C 516.167,936.833 515.833,937.167 515.5,937.5C 513.241,937.216 511.574,936.216 510.5,934.5 Z"/></g>
<g><path style="opacity:0.064" fill="#212537" d="M 904.5,952.5 C 899.642,951.343 897.142,948.343 897,943.5C 899.537,946.641 902.037,949.641 904.5,952.5 Z"/></g>
<g><path style="opacity:1" fill="#b6b1a8" d="M 524.5,940.5 C 525.251,939.427 526.251,939.26 527.5,940C 533.008,943.255 538.675,946.255 544.5,949C 543.584,949.374 542.75,949.874 542,950.5C 536.749,946.884 530.916,943.551 524.5,940.5 Z"/></g>
<g><path style="opacity:0.055" fill="#463e59" d="M 620.5,942.5 C 622.206,944.536 624.539,945.536 627.5,945.5C 629.735,945.205 631.735,945.539 633.5,946.5C 628.875,946.242 624.375,946.242 620,946.5C 619.235,944.934 619.402,943.601 620.5,942.5 Z"/></g>
<g><path style="opacity:0.004" fill="#f4eee1" d="M 787.5,945.5 C 788.833,946.167 788.833,946.167 787.5,945.5 Z"/></g>
<g><path style="opacity:0.004" fill="#f4eee1" d="M 789.5,946.5 C 790.833,947.167 790.833,947.167 789.5,946.5 Z"/></g>
<g><path style="opacity:1" fill="#66635e" d="M 544.5,951.5 C 546.185,950.156 547.852,950.323 549.5,952C 547.893,951.981 546.226,951.815 544.5,951.5 Z"/></g>
<g><path style="opacity:0.004" fill="#f4eee1" d="M 798.5,950.5 C 799.833,951.167 799.833,951.167 798.5,950.5 Z"/></g>
<g><path style="opacity:0.004" fill="#f4eee1" d="M 800.5,951.5 C 801.833,952.167 801.833,952.167 800.5,951.5 Z"/></g>
<g><path style="opacity:0.047" fill="#212537" d="M 904.5,952.5 C 905.363,951.537 906.03,951.537 906.5,952.5C 905.743,953.773 905.077,953.773 904.5,952.5 Z"/></g>
<g><path style="opacity:0.004" fill="#f4eee1" d="M 802.5,952.5 C 803.833,953.167 803.833,953.167 802.5,952.5 Z"/></g>
<g><path style="opacity:0.004" fill="#f4eee1" d="M 804.5,953.5 C 805.833,954.167 805.833,954.167 804.5,953.5 Z"/></g>
<g><path style="opacity:0.006" fill="#212537" d="M 909.5,954.5 C 909.897,953.475 910.563,953.308 911.5,954C 910.906,954.464 910.239,954.631 909.5,954.5 Z"/></g>
<g><path style="opacity:0.997" fill="#fdc549" d="M 620.5,956.5 C 621.973,957.072 623.307,957.905 624.5,959C 655.976,962.891 675.976,980.058 684.5,1010.5C 684.701,1013.51 685.034,1016.51 685.5,1019.5C 685.485,1021.63 684.985,1023.63 684,1025.5C 682.755,1025.46 681.422,1025.79 680,1026.5C 679.055,1026.09 678.388,1025.43 678,1024.5C 677.033,1025.68 676.533,1027.01 676.5,1028.5C 675.817,1028.14 675.15,1027.8 674.5,1027.5C 670.995,996.161 653.662,977.994 622.5,973C 598.461,970.938 579.628,979.771 566,999.5C 557.319,1013.89 555.152,1029.22 559.5,1045.5C 556.612,1045.22 555.112,1046.55 555,1049.5C 553.333,1050.5 551.667,1051.5 550,1052.5C 549.95,1050.26 549.117,1048.59 547.5,1047.5C 545.113,1041.01 543.78,1034.17 543.5,1027C 547.786,986.217 570.12,963.05 610.5,957.5C 614.042,957.813 617.375,957.479 620.5,956.5 Z"/></g>
<g><path style="opacity:0.062" fill="#212537" d="M 945.5,958.5 C 946.562,959.575 946.562,960.575 945.5,961.5C 942.291,960.785 939.291,959.618 936.5,958C 937.025,957.308 937.692,956.808 938.5,956.5C 940.51,958.171 942.843,958.838 945.5,958.5 Z"/></g>
<g><path style="opacity:0.004" fill="#212537" d="M 945.5,957.5 C 946.833,958.167 946.833,958.167 945.5,957.5 Z"/></g>
<g><path style="opacity:1" fill="#aaa59c" d="M 509.5,956.5 C 511.561,958.381 513.894,960.047 516.5,961.5C 517.521,962.002 517.688,962.668 517,963.5C 513.945,961.481 510.778,959.648 507.5,958C 508.416,957.722 509.082,957.222 509.5,956.5 Z"/></g>
<g><path style="opacity:1" fill="#403e3b" d="M 726.5,964.5 C 727.077,963.227 727.743,963.227 728.5,964.5C 728.03,965.463 727.363,965.463 726.5,964.5 Z"/></g>
<g><path style="opacity:0.004" fill="#f4eee1" d="M 823.5,963.5 C 824.833,964.167 824.833,964.167 823.5,963.5 Z"/></g>
<g><path style="opacity:0.004" fill="#f4eee1" d="M 825.5,964.5 C 826.833,965.167 826.833,965.167 825.5,964.5 Z"/></g>
<g><path style="opacity:0.004" fill="#f4eee1" d="M 827.5,965.5 C 828.833,966.167 828.833,966.167 827.5,965.5 Z"/></g>
<g><path style="opacity:0.004" fill="#212537" d="M 943.5,968.5 C 942.833,967.167 942.833,967.167 943.5,968.5 Z"/></g>
<g><path style="opacity:0.058" fill="#212537" d="M 943.5,968.5 C 944.496,968.586 945.329,968.252 946,967.5C 946.483,968.448 946.649,969.448 946.5,970.5C 944.821,970.715 943.821,970.048 943.5,968.5 Z"/></g>
<g><path style="opacity:1" fill="#a29d95" d="M 716.5,967.5 C 717.043,967.56 717.376,967.893 717.5,968.5C 713.523,971.429 709.19,973.262 704.5,974C 708.356,971.345 712.356,969.178 716.5,967.5 Z"/></g>
<g><path style="opacity:0.014" fill="#212537" d="M 929.5,970.5 C 931.337,970.639 931.67,971.306 930.5,972.5C 929.702,972.043 929.369,971.376 929.5,970.5 Z"/></g>
<g><path style="opacity:1" fill="#fea722" d="M 674.5,1027.5 C 674.388,1035.41 673.055,1043.07 670.5,1050.5C 668.13,1050.02 667.463,1048.85 668.5,1047C 665.833,1045 665.833,1043 668.5,1041C 668.056,1039.47 667.723,1037.97 667.5,1036.5C 668.167,1034.83 668.833,1033.17 669.5,1031.5C 668.471,1031.7 667.471,1031.2 666.5,1030C 667.214,1028.66 666.88,1027.32 665.5,1026C 667.286,1025.8 668.619,1024.97 669.5,1023.5C 667.985,1021.45 667.151,1019.12 667,1016.5C 666.667,1017.17 666.333,1017.83 666,1018.5C 665.667,1017.17 665.333,1015.83 665,1014.5C 663.636,1015.26 662.469,1014.76 661.5,1013C 662.609,1011.19 661.942,1010.35 659.5,1010.5C 659.52,1008.86 658.853,1007.52 657.5,1006.5C 657.709,1005.91 658.043,1005.41 658.5,1005C 656.508,1004.43 655.008,1003.26 654,1001.5C 653.667,1001.83 653.333,1002.17 653,1002.5C 651.206,999.299 649.206,996.299 647,993.5C 645.686,992.687 644.519,991.687 643.5,990.5C 642.893,990.624 642.56,990.957 642.5,991.5C 641.833,991.167 641.167,990.833 640.5,990.5C 640.611,989.883 640.944,989.383 641.5,989C 640.234,988.691 639.067,988.191 638,987.5C 637.667,987.833 637.333,988.167 637,988.5C 634.222,985.193 630.722,983.026 626.5,982C 625.874,981.25 625.374,980.416 625,979.5C 623.783,980.386 622.449,981.386 621,982.5C 620.781,981.062 620.281,979.729 619.5,978.5C 618.031,980.375 616.198,980.375 614,978.5C 613.333,979.833 612.333,980.833 611,981.5C 609.667,981.5 608.333,981.5 607,981.5C 606.333,984.167 605.667,984.167 605,981.5C 600.482,983.508 595.982,985.675 591.5,988C 590.874,988.75 590.374,989.584 590,990.5C 589.667,990.167 589.333,989.833 589,989.5C 582.659,995.351 576.826,1001.02 571.5,1006.5C 568.035,1011.19 566.702,1016.36 567.5,1022C 565.637,1027.61 565.637,1033.28 567.5,1039C 564.549,1042.74 564.882,1046.07 568.5,1049C 567.5,1049.33 566.5,1049.67 565.5,1050C 567.608,1050.36 569.608,1051.03 571.5,1052C 571.056,1053.53 570.723,1055.03 570.5,1056.5C 572.578,1058.39 573.911,1060.72 574.5,1063.5C 572.198,1065 572.531,1066.33 575.5,1067.5C 575.043,1068.3 574.376,1068.63 573.5,1068.5C 567.049,1061.93 562.383,1054.27 559.5,1045.5C 555.152,1029.22 557.319,1013.89 566,999.5C 579.628,979.771 598.461,970.938 622.5,973C 653.662,977.994 670.995,996.161 674.5,1027.5 Z"/></g>
<g><path style="opacity:0.004" fill="#f4eee1" d="M 849.5,977.5 C 850.833,978.167 850.833,978.167 849.5,977.5 Z"/></g>
<g><path style="opacity:0.004" fill="#f4eee1" d="M 851.5,978.5 C 852.833,979.167 852.833,979.167 851.5,978.5 Z"/></g>
<g><path style="opacity:0.004" fill="#f4eee1" d="M 853.5,979.5 C 854.833,980.167 854.833,980.167 853.5,979.5 Z"/></g>
<g><path style="opacity:1" fill="#afaaa2" d="M 517.5,980.5 C 520.235,981.358 522.568,982.858 524.5,985C 520.797,985.489 518.463,983.989 517.5,980.5 Z"/></g>
<g><path style="opacity:0.004" fill="#f4eee1" d="M 860.5,982.5 C 861.833,983.167 861.833,983.167 860.5,982.5 Z"/></g>
<g><path style="opacity:0.004" fill="#f4eee1" d="M 862.5,983.5 C 863.833,984.167 863.833,984.167 862.5,983.5 Z"/></g>
<g><path style="opacity:0.004" fill="#f4eee1" d="M 864.5,984.5 C 865.833,985.167 865.833,985.167 864.5,984.5 Z"/></g>
<g><path style="opacity:0.004" fill="#f4eee1" d="M 866.5,985.5 C 867.833,986.167 867.833,986.167 866.5,985.5 Z"/></g>
<g><path style="opacity:1" fill="#afaaa2" d="M 398.5,985.5 C 399.151,986.091 399.818,986.757 400.5,987.5C 404.502,987.325 408.502,988.159 412.5,990C 407.272,989.477 402.272,988.811 397.5,988C 396.833,987.667 396.167,987.333 395.5,987C 396.737,986.768 397.737,986.268 398.5,985.5 Z"/></g>
<g><path style="opacity:1" fill="#7f7b75" d="M 464.5,986.5 C 468.195,985.874 469.029,986.874 467,989.5C 466.333,986.833 465.667,986.833 465,989.5C 464.517,988.552 464.351,987.552 464.5,986.5 Z"/></g>
<g><path style="opacity:1" fill="#86827b" d="M 804.5,985.5 C 807.907,985.125 808.407,986.125 806,988.5C 804.438,988.741 802.938,988.241 801.5,987C 802.737,986.768 803.737,986.268 804.5,985.5 Z"/></g>
<g><path style="opacity:1" fill="#9a968f" d="M 533.5,987.5 C 535.712,988.645 538.045,989.645 540.5,990.5C 540.333,990.833 540.167,991.167 540,991.5C 538.215,990.76 536.382,990.093 534.5,989.5C 533.702,989.043 533.369,988.376 533.5,987.5 Z"/></g>
<g><path style="opacity:0.004" fill="#f4eee1" d="M 883.5,994.5 C 884.833,995.167 884.833,995.167 883.5,994.5 Z"/></g>
<g><path style="opacity:0.004" fill="#f4eee1" d="M 885.5,995.5 C 886.833,996.167 886.833,996.167 885.5,995.5 Z"/></g>
<g><path style="opacity:0.004" fill="#f4eee1" d="M 887.5,996.5 C 888.833,997.167 888.833,997.167 887.5,996.5 Z"/></g>
<g><path style="opacity:1" fill="#99958e" d="M 366.5,996.5 C 367.756,996.461 368.756,996.961 369.5,998C 368.128,998.402 366.795,998.902 365.5,999.5C 365.167,999.167 364.833,998.833 364.5,998.5C 365.243,997.818 365.909,997.151 366.5,996.5 Z"/></g>
<g><path style="opacity:0.004" fill="#f4eee1" d="M 889.5,997.5 C 890.833,998.167 890.833,998.167 889.5,997.5 Z"/></g>
<g><path style="opacity:0.004" fill="#f4eee1" d="M 891.5,998.5 C 892.833,999.167 892.833,999.167 891.5,998.5 Z"/></g>
<g><path style="opacity:1" fill="#99958d" d="M 822.5,999.5 C 824.086,1000.15 825.753,1000.65 827.5,1001C 825.167,1001.67 822.833,1001.67 820.5,1001C 821.416,1000.72 822.082,1000.22 822.5,999.5 Z"/></g>
<g><path style="opacity:1" fill="#8e8a83" d="M 371.5,998.5 C 374.258,1001.28 377.424,1001.95 381,1000.5C 381.5,1001 382,1001.5 382.5,1002C 378.97,1003.79 375.637,1003.62 372.5,1001.5C 371.614,1000.68 371.281,999.675 371.5,998.5 Z"/></g>
<g><path style="opacity:1" fill="#b0aba2" d="M 389.5,1003.5 C 393.504,1004.22 397.504,1005.06 401.5,1006C 402.451,1006.72 402.617,1007.55 402,1008.5C 399.667,1007.5 397.333,1006.5 395,1005.5C 394.667,1005.83 394.333,1006.17 394,1006.5C 392.266,1005.75 390.433,1005.25 388.5,1005C 389.056,1004.62 389.389,1004.12 389.5,1003.5 Z"/></g>
<g><path style="opacity:1" fill="#aca79e" d="M 797.5,1005.5 C 798.552,1005.35 799.552,1005.52 800.5,1006C 797,1007.5 793.5,1009 790,1010.5C 789.25,1009.87 788.416,1009.37 787.5,1009C 791.028,1008.05 794.361,1006.89 797.5,1005.5 Z"/></g>
<g><path style="opacity:0.004" fill="#f4eee1" d="M 911.5,1009.5 C 912.833,1010.17 912.833,1010.17 911.5,1009.5 Z"/></g>
<g><path style="opacity:1" fill="#99958e" d="M 775.5,1012.5 C 776.946,1011.39 778.613,1011.22 780.5,1012C 778.977,1013.79 777.31,1013.96 775.5,1012.5 Z"/></g>
<g><path style="opacity:1" fill="#ada89f" d="M 528.5,1009.5 C 531.483,1011.14 534.483,1012.81 537.5,1014.5C 533.845,1014.89 530.512,1013.72 527.5,1011C 528.056,1010.62 528.389,1010.12 528.5,1009.5 Z"/></g>
<g><path style="opacity:1" fill="#9a968e" d="M 769.5,1012.5 C 771.288,1012.21 772.955,1012.55 774.5,1013.5C 772.165,1013.71 769.665,1014.38 767,1015.5C 766.5,1015 766,1014.5 765.5,1014C 767.058,1013.79 768.391,1013.29 769.5,1012.5 Z"/></g>
<g><path style="opacity:1" fill="#b0aba3" d="M 865.5,1012.5 C 867.308,1012.49 868.975,1012.99 870.5,1014C 865.718,1014.51 861.051,1015.18 856.5,1016C 859.511,1014.67 862.511,1013.51 865.5,1012.5 Z"/></g>
<g><path style="opacity:0.004" fill="#f4eee1" d="M 925.5,1016.5 C 924.833,1015.17 924.833,1015.17 925.5,1016.5 Z"/></g>
<g><path style="opacity:1" fill="#908c85" d="M 848.5,1017.5 C 850.6,1015.73 852.934,1015.39 855.5,1016.5C 854.726,1017.71 853.893,1017.71 853,1016.5C 852.667,1017.17 852.333,1017.83 852,1018.5C 850.989,1017.66 849.822,1017.33 848.5,1017.5 Z"/></g>
<g><path style="opacity:0.004" fill="#f4eee1" d="M 925.5,1016.5 C 926.833,1017.17 926.833,1017.17 925.5,1016.5 Z"/></g>
<g><path style="opacity:1" fill="#848079" d="M 848.5,1017.5 C 846.153,1018.89 843.819,1018.73 841.5,1017C 843.947,1017.41 846.28,1017.58 848.5,1017.5 Z"/></g>
<g><path style="opacity:1" fill="#772b46" d="M 452.5,1056.5 C 450.983,1056.51 449.816,1057.18 449,1058.5C 448.333,1057.17 447.333,1056.17 446,1055.5C 445.5,1057.33 444.333,1058.5 442.5,1059C 444.901,1059.81 444.734,1060.64 442,1061.5C 440.648,1059.57 438.815,1058.23 436.5,1057.5C 437.506,1056.6 437.506,1055.94 436.5,1055.5C 435.684,1057.29 434.684,1058.95 433.5,1060.5C 432.086,1059.38 430.586,1058.38 429,1057.5C 428.667,1057.83 428.333,1058.17 428,1058.5C 427.316,1057.22 427.483,1056.05 428.5,1055C 427.354,1054.36 426.354,1053.52 425.5,1052.5C 425.089,1053.26 424.923,1054.26 425,1055.5C 423.956,1054.38 423.29,1053.04 423,1051.5C 420.241,1052.59 417.575,1052.59 415,1051.5C 414.616,1053.2 414.782,1054.86 415.5,1056.5C 376.527,1042.59 336.527,1032.76 295.5,1027C 294.978,1026.44 294.645,1025.77 294.5,1025C 295.697,1022.11 297.03,1019.27 298.5,1016.5C 299.833,1016.17 301.167,1015.83 302.5,1015.5C 354.164,1023.58 404.164,1037.25 452.5,1056.5 Z"/></g>
<g><path style="opacity:0.004" fill="#d4361d" d="M 889.5,1026.5 C 890.833,1027.17 890.833,1027.17 889.5,1026.5 Z"/></g>
<g><path style="opacity:0.004" fill="#d4361d" d="M 884.5,1027.5 C 885.833,1028.17 885.833,1028.17 884.5,1027.5 Z"/></g>
<g><path style="opacity:1" fill="#7b2a42" d="M 923.5,1023.5 C 925.5,1023.5 927.5,1023.5 929.5,1023.5C 931.293,1025.43 932.293,1027.76 932.5,1030.5C 932.5,1031.83 932.5,1033.17 932.5,1034.5C 925.194,1035.74 917.861,1037.07 910.5,1038.5C 899.22,1038.99 888.054,1040.99 877,1044.5C 876.586,1044.04 876.086,1043.71 875.5,1043.5C 854.338,1048.64 833.338,1054.3 812.5,1060.5C 812.936,1058.25 813.603,1056.09 814.5,1054C 812.975,1052.99 811.308,1052.49 809.5,1052.5C 809.33,1051.18 809.663,1050.01 810.5,1049C 810,1048.83 809.5,1048.67 809,1048.5C 805.283,1050.02 801.449,1051.02 797.5,1051.5C 819.061,1044 841.394,1038 864.5,1033.5C 868.837,1033.42 872.837,1032.42 876.5,1030.5C 886.931,1029.01 897.265,1027.01 907.5,1024.5C 908.293,1024.93 909.127,1025.26 910,1025.5C 914.43,1024.34 918.93,1023.68 923.5,1023.5 Z"/></g>
<g><path style="opacity:0.133" fill="#d4361d" d="M 932.5,1030.5 C 933.391,1031.26 934.058,1032.26 934.5,1033.5C 934.043,1034.3 933.376,1034.63 932.5,1034.5C 932.5,1033.17 932.5,1031.83 932.5,1030.5 Z"/></g>
<g><path style="opacity:0.612" fill="#b43231" d="M 876.5,1030.5 C 872.837,1032.42 868.837,1033.42 864.5,1033.5C 868.239,1031.9 872.239,1030.9 876.5,1030.5 Z"/></g>
<g><path style="opacity:0.004" fill="#f4eee1" d="M 803.5,1041.5 C 804.833,1042.17 804.833,1042.17 803.5,1041.5 Z"/></g>
<g><path style="opacity:0.004" fill="#f4eee1" d="M 800.5,1042.5 C 801.833,1043.17 801.833,1043.17 800.5,1042.5 Z"/></g>
<g><path style="opacity:1" fill="#9f9b93" d="M 702.5,1042.5 C 703.289,1042.78 703.956,1043.28 704.5,1044C 701.464,1044.71 698.631,1045.88 696,1047.5C 695.251,1046.36 695.417,1045.36 696.5,1044.5C 697.086,1044.71 697.586,1045.04 698,1045.5C 699.31,1044.1 700.81,1043.1 702.5,1042.5 Z"/></g>
<g><path style="opacity:0.004" fill="#f4eee1" d="M 797.5,1043.5 C 798.833,1044.17 798.833,1044.17 797.5,1043.5 Z"/></g>
<g><path style="opacity:0.004" fill="#d4361d" d="M 870.5,1045.5 C 871.833,1046.17 871.833,1046.17 870.5,1045.5 Z"/></g>
<g><path style="opacity:0.004" fill="#d4361d" d="M 866.5,1046.5 C 867.833,1047.17 867.833,1047.17 866.5,1046.5 Z"/></g>
<g><path style="opacity:0.004" fill="#d4361d" d="M 801.5,1047.5 C 802.833,1048.17 802.833,1048.17 801.5,1047.5 Z"/></g>
<g><path style="opacity:0.004" fill="#d4361d" d="M 862.5,1047.5 C 863.833,1048.17 863.833,1048.17 862.5,1047.5 Z"/></g>
<g><path style="opacity:0.004" fill="#d4361d" d="M 798.5,1048.5 C 799.833,1049.17 799.833,1049.17 798.5,1048.5 Z"/></g>
<g><path style="opacity:0.004" fill="#d4361d" d="M 795.5,1049.5 C 796.833,1050.17 796.833,1050.17 795.5,1049.5 Z"/></g>
<g><path style="opacity:0.004" fill="#f4eee1" d="M 776.5,1050.5 C 777.833,1051.17 777.833,1051.17 776.5,1050.5 Z"/></g>
<g><path style="opacity:0.004" fill="#d4361d" d="M 792.5,1050.5 C 793.833,1051.17 793.833,1051.17 792.5,1050.5 Z"/></g>
<g><path style="opacity:1" fill="#762f4d" d="M 452.5,1056.5 C 462.134,1059.99 471.467,1063.99 480.5,1068.5C 478.856,1068.71 477.356,1068.38 476,1067.5C 475.333,1071.5 474.667,1071.5 474,1067.5C 473.033,1068.68 472.533,1070.01 472.5,1071.5C 471.952,1067.72 470.285,1066.89 467.5,1069C 470.564,1072.54 470.23,1073.54 466.5,1072C 467.654,1071.09 467.487,1070.25 466,1069.5C 465.667,1070.5 465.333,1071.5 465,1072.5C 460.631,1071.81 460.464,1072.97 464.5,1076C 464.272,1076.4 463.938,1076.57 463.5,1076.5C 447.432,1069.79 431.432,1063.13 415.5,1056.5C 414.782,1054.86 414.616,1053.2 415,1051.5C 417.575,1052.59 420.241,1052.59 423,1051.5C 423.29,1053.04 423.956,1054.38 425,1055.5C 424.923,1054.26 425.089,1053.26 425.5,1052.5C 426.354,1053.52 427.354,1054.36 428.5,1055C 427.483,1056.05 427.316,1057.22 428,1058.5C 428.333,1058.17 428.667,1057.83 429,1057.5C 430.586,1058.38 432.086,1059.38 433.5,1060.5C 434.684,1058.95 435.684,1057.29 436.5,1055.5C 437.506,1055.94 437.506,1056.6 436.5,1057.5C 438.815,1058.23 440.648,1059.57 442,1061.5C 444.734,1060.64 444.901,1059.81 442.5,1059C 444.333,1058.5 445.5,1057.33 446,1055.5C 447.333,1056.17 448.333,1057.17 449,1058.5C 449.816,1057.18 450.983,1056.51 452.5,1056.5 Z"/></g>
<g><path style="opacity:0.004" fill="#f4eee1" d="M 771.5,1052.5 C 772.833,1053.17 772.833,1053.17 771.5,1052.5 Z"/></g>
<g><path style="opacity:0.004" fill="#d4361d" d="M 788.5,1053.5 C 787.833,1052.17 787.833,1052.17 788.5,1053.5 Z"/></g>
<g><path style="opacity:0.004" fill="#f4eee1" d="M 769.5,1053.5 C 770.833,1054.17 770.833,1054.17 769.5,1053.5 Z"/></g>
<g><path style="opacity:0.004" fill="#d4361d" d="M 785.5,1054.5 C 784.833,1053.17 784.833,1053.17 785.5,1054.5 Z"/></g>
<g><path style="opacity:0.004" fill="#d4361d" d="M 838.5,1053.5 C 839.833,1054.17 839.833,1054.17 838.5,1053.5 Z"/></g>
<g><path style="opacity:0.004" fill="#d4361d" d="M 835.5,1054.5 C 836.833,1055.17 836.833,1055.17 835.5,1054.5 Z"/></g>
<g><path style="opacity:0.004" fill="#212537" d="M 764.5,1055.5 C 765.833,1056.17 765.833,1056.17 764.5,1055.5 Z"/></g>
<g><path style="opacity:0.004" fill="#d4361d" d="M 832.5,1055.5 C 833.833,1056.17 833.833,1056.17 832.5,1055.5 Z"/></g>
<g><path style="opacity:1" fill="#753250" d="M 812.5,1060.5 C 804.317,1063.67 795.984,1066.67 787.5,1069.5C 785.447,1069.4 783.78,1070.07 782.5,1071.5C 780.847,1071.66 779.514,1072.33 778.5,1073.5C 776.447,1073.4 774.78,1074.07 773.5,1075.5C 770.088,1076.04 767.088,1077.38 764.5,1079.5C 747.211,1085.66 730.877,1093 715.5,1101.5C 714.508,1101.33 713.842,1101.66 713.5,1102.5C 710.669,1103.08 708.336,1104.41 706.5,1106.5C 705.508,1106.33 704.842,1106.66 704.5,1107.5C 690.017,1113.9 676.35,1121.57 663.5,1130.5C 660.211,1132.1 657.211,1133.44 654.5,1134.5C 653.849,1133.91 653.182,1133.24 652.5,1132.5C 651.914,1132.71 651.414,1133.04 651,1133.5C 650.781,1132.06 650.281,1130.73 649.5,1129.5C 646.807,1130.14 644.307,1130.14 642,1129.5C 640.221,1131.02 640.721,1131.85 643.5,1132C 642.333,1132.5 641.5,1133.33 641,1134.5C 640.25,1133.87 639.416,1133.37 638.5,1133C 639.833,1132 639.833,1131 638.5,1130C 640.063,1129.24 641.063,1128.07 641.5,1126.5C 642.694,1125.73 643.694,1124.73 644.5,1123.5C 650.206,1120.65 655.539,1117.32 660.5,1113.5C 662.027,1113.57 663.027,1112.91 663.5,1111.5C 673.525,1105.79 683.525,1100.13 693.5,1094.5C 696.331,1093.92 698.664,1092.59 700.5,1090.5C 701.492,1090.67 702.158,1090.34 702.5,1089.5C 705.992,1088.59 708.992,1086.92 711.5,1084.5C 723.096,1080.05 734.762,1074.89 746.5,1069C 753.199,1067.16 759.533,1064.66 765.5,1061.5C 767.553,1061.6 769.22,1060.93 770.5,1059.5C 775.937,1057.89 780.937,1056.22 785.5,1054.5C 786.791,1054.74 787.791,1054.4 788.5,1053.5C 791.5,1052.83 794.5,1052.17 797.5,1051.5C 801.449,1051.02 805.283,1050.02 809,1048.5C 809.5,1048.67 810,1048.83 810.5,1049C 809.663,1050.01 809.33,1051.18 809.5,1052.5C 811.308,1052.49 812.975,1052.99 814.5,1054C 813.603,1056.09 812.936,1058.25 812.5,1060.5 Z"/></g>
<g><path style="opacity:0.004" fill="#212537" d="M 770.5,1059.5 C 769.833,1058.17 769.833,1058.17 770.5,1059.5 Z"/></g>
<g><path style="opacity:0.004" fill="#212537" d="M 765.5,1061.5 C 764.833,1060.17 764.833,1060.17 765.5,1061.5 Z"/></g>
<g><path style="opacity:1" fill="#beb9af" d="M 702.5,1060.5 C 703.552,1060.35 704.552,1060.52 705.5,1061C 701.208,1064.46 696.541,1067.29 691.5,1069.5C 691.167,1069.17 690.833,1068.83 690.5,1068.5C 694.506,1065.04 698.506,1062.37 702.5,1060.5 Z"/></g>
<g><path style="opacity:1" fill="#723353" d="M 480.5,1068.5 C 511.923,1082.37 541.589,1099.04 569.5,1118.5C 570.473,1120.07 570.64,1121.73 570,1123.5C 568.434,1122.94 567.101,1123.61 566,1125.5C 565.086,1124.35 564.253,1124.51 563.5,1126C 564.34,1127.67 563.84,1127.83 562,1126.5C 561.583,1127.76 560.75,1128.42 559.5,1128.5C 528.355,1109.59 496.355,1092.26 463.5,1076.5C 463.938,1076.57 464.272,1076.4 464.5,1076C 460.464,1072.97 460.631,1071.81 465,1072.5C 465.333,1071.5 465.667,1070.5 466,1069.5C 467.487,1070.25 467.654,1071.09 466.5,1072C 470.23,1073.54 470.564,1072.54 467.5,1069C 470.285,1066.89 471.952,1067.72 472.5,1071.5C 472.533,1070.01 473.033,1068.68 474,1067.5C 474.667,1071.5 475.333,1071.5 476,1067.5C 477.356,1068.38 478.856,1068.71 480.5,1068.5 Z"/></g>
<g><path style="opacity:0.016" fill="#bd342d" d="M 787.5,1069.5 C 786.22,1070.93 784.553,1071.6 782.5,1071.5C 783.78,1070.07 785.447,1069.4 787.5,1069.5 Z"/></g>
<g><path style="opacity:0.004" fill="#d4361d" d="M 734.5,1072.5 C 735.833,1073.17 735.833,1073.17 734.5,1072.5 Z"/></g>
<g><path style="opacity:0.004" fill="#d4361d" d="M 778.5,1073.5 C 779.833,1074.17 779.833,1074.17 778.5,1073.5 Z"/></g>
<g><path style="opacity:1" fill="#feb52e" d="M 640.5,990.5 C 637.38,989.934 634.047,988.934 630.5,987.5C 629.914,987.709 629.414,988.043 629,988.5C 626.942,987.891 626.109,986.891 626.5,985.5C 623.063,987.078 619.896,986.745 617,984.5C 616.692,985.308 616.192,985.975 615.5,986.5C 612.039,984.812 609.039,985.146 606.5,987.5C 605.833,988.5 605.167,989.5 604.5,990.5C 601.972,990.315 599.472,990.315 597,990.5C 593.384,993.557 589.718,996.557 586,999.5C 584.16,998.167 583.66,998.334 584.5,1000C 582.478,1002.69 580.145,1005.02 577.5,1007C 578.079,1009.05 578.412,1011.05 578.5,1013C 576.606,1014.1 575.939,1015.43 576.5,1017C 574.529,1019.86 573.863,1022.86 574.5,1026C 573.833,1026.33 573.167,1026.67 572.5,1027C 573.704,1030.55 574.37,1033.89 574.5,1037C 573.939,1038.68 572.939,1040.01 571.5,1041C 573.722,1047.5 577.389,1053.17 582.5,1058C 580.713,1060.26 581.38,1062.09 584.5,1063.5C 586.133,1062.26 587.133,1062.76 587.5,1065C 587.095,1065.95 586.428,1066.61 585.5,1067C 586.793,1067.49 588.127,1067.66 589.5,1067.5C 589.281,1068.68 589.614,1069.68 590.5,1070.5C 591.989,1070.53 593.322,1071.03 594.5,1072C 594.167,1072.33 593.833,1072.67 593.5,1073C 595.726,1074.23 597.226,1076.06 598,1078.5C 598.667,1077.83 599.333,1077.17 600,1076.5C 600.465,1077.93 601.299,1079.1 602.5,1080C 603.744,1080.46 604.577,1079.96 605,1078.5C 606.655,1078.8 607.988,1080.14 609,1082.5C 610.236,1079.44 612.236,1079.44 615,1082.5C 615.308,1081.69 615.808,1081.03 616.5,1080.5C 616.833,1081.17 617.167,1081.83 617.5,1082.5C 619.776,1080.05 622.442,1078.22 625.5,1077C 621.586,1076.1 621.752,1075.6 626,1075.5C 628.39,1076.23 630.39,1076.89 632,1077.5C 634.828,1074.55 637.662,1072.38 640.5,1071C 638.205,1070.02 638.539,1069.18 641.5,1068.5C 642.541,1070.99 643.374,1070.99 644,1068.5C 644.232,1069.74 644.732,1070.74 645.5,1071.5C 647.103,1072.68 648.436,1072.51 649.5,1071C 649.167,1070.67 648.833,1070.33 648.5,1070C 651.707,1068.16 654.707,1066.16 657.5,1064C 656.833,1063.67 656.167,1063.33 655.5,1063C 656.973,1062.29 657.64,1061.12 657.5,1059.5C 659.103,1059.69 660.437,1059.19 661.5,1058C 661.179,1056.06 662.179,1054.56 664.5,1053.5C 667.084,1050.36 666.751,1047.86 663.5,1046C 664.357,1045.31 665.023,1044.48 665.5,1043.5C 662.767,1040.26 660.767,1036.6 659.5,1032.5C 660.242,1030.65 661.242,1029.98 662.5,1030.5C 660.252,1029.68 660.086,1028.68 662,1027.5C 663.174,1022.16 662.174,1017.83 659,1014.5C 658.517,1013.55 658.351,1012.55 658.5,1011.5C 656.567,1011.27 654.9,1010.44 653.5,1009C 655.992,1007.75 655.825,1006.58 653,1005.5C 652.138,1003.91 651.471,1002.25 651,1000.5C 650.586,1000.96 650.086,1001.29 649.5,1001.5C 647.967,999.711 646.967,997.711 646.5,995.5C 645.5,995.5 644.5,995.5 643.5,995.5C 643.567,994.041 643.234,992.708 642.5,991.5C 642.56,990.957 642.893,990.624 643.5,990.5C 644.519,991.687 645.686,992.687 647,993.5C 649.206,996.299 651.206,999.299 653,1002.5C 653.333,1002.17 653.667,1001.83 654,1001.5C 655.008,1003.26 656.508,1004.43 658.5,1005C 658.043,1005.41 657.709,1005.91 657.5,1006.5C 658.853,1007.52 659.52,1008.86 659.5,1010.5C 661.942,1010.35 662.609,1011.19 661.5,1013C 662.469,1014.76 663.636,1015.26 665,1014.5C 665.333,1015.83 665.667,1017.17 666,1018.5C 666.333,1017.83 666.667,1017.17 667,1016.5C 667.151,1019.12 667.985,1021.45 669.5,1023.5C 668.619,1024.97 667.286,1025.8 665.5,1026C 666.88,1027.32 667.214,1028.66 666.5,1030C 667.471,1031.2 668.471,1031.7 669.5,1031.5C 668.833,1033.17 668.167,1034.83 667.5,1036.5C 667.723,1037.97 668.056,1039.47 668.5,1041C 665.833,1043 665.833,1045 668.5,1047C 667.463,1048.85 668.13,1050.02 670.5,1050.5C 655.066,1080.54 630.733,1091.71 597.5,1084C 587.999,1080.97 579.999,1075.8 573.5,1068.5C 574.376,1068.63 575.043,1068.3 575.5,1067.5C 572.531,1066.33 572.198,1065 574.5,1063.5C 573.911,1060.72 572.578,1058.39 570.5,1056.5C 570.723,1055.03 571.056,1053.53 571.5,1052C 569.608,1051.03 567.608,1050.36 565.5,1050C 566.5,1049.67 567.5,1049.33 568.5,1049C 564.882,1046.07 564.549,1042.74 567.5,1039C 565.637,1033.28 565.637,1027.61 567.5,1022C 566.702,1016.36 568.035,1011.19 571.5,1006.5C 576.826,1001.02 582.659,995.351 589,989.5C 589.333,989.833 589.667,990.167 590,990.5C 590.374,989.584 590.874,988.75 591.5,988C 595.982,985.675 600.482,983.508 605,981.5C 605.667,984.167 606.333,984.167 607,981.5C 608.333,981.5 609.667,981.5 611,981.5C 612.333,980.833 613.333,979.833 614,978.5C 616.198,980.375 618.031,980.375 619.5,978.5C 620.281,979.729 620.781,981.062 621,982.5C 622.449,981.386 623.783,980.386 625,979.5C 625.374,980.416 625.874,981.25 626.5,982C 630.722,983.026 634.222,985.193 637,988.5C 637.333,988.167 637.667,987.833 638,987.5C 639.067,988.191 640.234,988.691 641.5,989C 640.944,989.383 640.611,989.883 640.5,990.5 Z"/></g>
<g><path style="opacity:1" fill="#fec23b" d="M 604.5,990.5 C 604.808,992.924 604.474,995.257 603.5,997.5C 596.604,1000.63 593.271,1005.96 593.5,1013.5C 592.542,1013.05 591.708,1012.38 591,1011.5C 589.878,1013.42 589.044,1015.42 588.5,1017.5C 585.203,1017.33 584.869,1018 587.5,1019.5C 586.975,1020.19 586.308,1020.69 585.5,1021C 586.464,1023.65 585.964,1026.15 584,1028.5C 582.334,1027.66 582.167,1028.16 583.5,1030C 581.487,1031.79 581.487,1033.12 583.5,1034C 581.875,1034.85 581.542,1035.85 582.5,1037C 581.672,1037.91 580.672,1038.58 579.5,1039C 580.5,1039.33 581.5,1039.67 582.5,1040C 579.542,1043.31 579.875,1046.14 583.5,1048.5C 582.287,1050.85 582.953,1052.68 585.5,1054C 585.179,1055.94 586.179,1057.44 588.5,1058.5C 589.429,1059.69 589.762,1061.02 589.5,1062.5C 591.942,1062.35 592.609,1063.19 591.5,1065C 593.402,1065.2 594.902,1066.03 596,1067.5C 596.333,1067.17 596.667,1066.83 597,1066.5C 597.333,1067.5 597.667,1068.5 598,1069.5C 599.873,1068.91 601.54,1069.58 603,1071.5C 604.113,1070.29 605.28,1070.29 606.5,1071.5C 607.5,1070.83 608.5,1070.17 609.5,1069.5C 611.02,1070.85 611.687,1072.18 611.5,1073.5C 613.179,1072.22 615.013,1071.22 617,1070.5C 617.333,1071.17 617.667,1071.83 618,1072.5C 621.372,1070.16 625.039,1069.49 629,1070.5C 630.722,1070.39 630.888,1069.89 629.5,1069C 630.449,1068.38 631.282,1068.55 632,1069.5C 634.11,1067.88 636.443,1066.54 639,1065.5C 639.72,1063.89 639.554,1062.39 638.5,1061C 639.328,1060.09 640.328,1059.42 641.5,1059C 639.314,1058.4 639.148,1057.23 641,1055.5C 641.333,1055.83 641.667,1056.17 642,1056.5C 643.368,1055.01 643.535,1053.51 642.5,1052C 644.074,1051.65 645.741,1050.98 647.5,1050C 646.833,1049.33 646.167,1048.67 645.5,1048C 646.984,1047.34 648.317,1046.5 649.5,1045.5C 649.611,1046.12 649.944,1046.62 650.5,1047C 648.658,1049.7 648.325,1052.53 649.5,1055.5C 652.441,1052.87 653.107,1053.54 651.5,1057.5C 652.242,1059.35 653.242,1060.02 654.5,1059.5C 651.203,1060.14 650.869,1061.31 653.5,1063C 649.855,1063.11 647.855,1063.94 647.5,1065.5C 647.296,1067.69 646.63,1069.69 645.5,1071.5C 644.732,1070.74 644.232,1069.74 644,1068.5C 643.374,1070.99 642.541,1070.99 641.5,1068.5C 638.539,1069.18 638.205,1070.02 640.5,1071C 637.662,1072.38 634.828,1074.55 632,1077.5C 630.39,1076.89 628.39,1076.23 626,1075.5C 621.752,1075.6 621.586,1076.1 625.5,1077C 622.442,1078.22 619.776,1080.05 617.5,1082.5C 617.167,1081.83 616.833,1081.17 616.5,1080.5C 615.808,1081.03 615.308,1081.69 615,1082.5C 612.236,1079.44 610.236,1079.44 609,1082.5C 607.988,1080.14 606.655,1078.8 605,1078.5C 604.577,1079.96 603.744,1080.46 602.5,1080C 601.299,1079.1 600.465,1077.93 600,1076.5C 599.333,1077.17 598.667,1077.83 598,1078.5C 597.226,1076.06 595.726,1074.23 593.5,1073C 593.833,1072.67 594.167,1072.33 594.5,1072C 593.322,1071.03 591.989,1070.53 590.5,1070.5C 589.614,1069.68 589.281,1068.68 589.5,1067.5C 588.127,1067.66 586.793,1067.49 585.5,1067C 586.428,1066.61 587.095,1065.95 587.5,1065C 587.133,1062.76 586.133,1062.26 584.5,1063.5C 581.38,1062.09 580.713,1060.26 582.5,1058C 577.389,1053.17 573.722,1047.5 571.5,1041C 572.939,1040.01 573.939,1038.68 574.5,1037C 574.37,1033.89 573.704,1030.55 572.5,1027C 573.167,1026.67 573.833,1026.33 574.5,1026C 573.863,1022.86 574.529,1019.86 576.5,1017C 575.939,1015.43 576.606,1014.1 578.5,1013C 578.412,1011.05 578.079,1009.05 577.5,1007C 580.145,1005.02 582.478,1002.69 584.5,1000C 583.66,998.334 584.16,998.167 586,999.5C 589.718,996.557 593.384,993.557 597,990.5C 599.472,990.315 601.972,990.315 604.5,990.5 Z"/></g>
<g><path style="opacity:1" fill="#febd37" d="M 640.5,990.5 C 641.167,990.833 641.833,991.167 642.5,991.5C 643.234,992.708 643.567,994.041 643.5,995.5C 644.5,995.5 645.5,995.5 646.5,995.5C 646.967,997.711 647.967,999.711 649.5,1001.5C 650.086,1001.29 650.586,1000.96 651,1000.5C 651.471,1002.25 652.138,1003.91 653,1005.5C 655.825,1006.58 655.992,1007.75 653.5,1009C 654.9,1010.44 656.567,1011.27 658.5,1011.5C 658.351,1012.55 658.517,1013.55 659,1014.5C 662.174,1017.83 663.174,1022.16 662,1027.5C 660.086,1028.68 660.252,1029.68 662.5,1030.5C 661.242,1029.98 660.242,1030.65 659.5,1032.5C 660.767,1036.6 662.767,1040.26 665.5,1043.5C 665.023,1044.48 664.357,1045.31 663.5,1046C 666.751,1047.86 667.084,1050.36 664.5,1053.5C 662.179,1054.56 661.179,1056.06 661.5,1058C 660.437,1059.19 659.103,1059.69 657.5,1059.5C 657.64,1061.12 656.973,1062.29 655.5,1063C 656.167,1063.33 656.833,1063.67 657.5,1064C 654.707,1066.16 651.707,1068.16 648.5,1070C 648.833,1070.33 649.167,1070.67 649.5,1071C 648.436,1072.51 647.103,1072.68 645.5,1071.5C 646.63,1069.69 647.296,1067.69 647.5,1065.5C 647.855,1063.94 649.855,1063.11 653.5,1063C 650.869,1061.31 651.203,1060.14 654.5,1059.5C 653.242,1060.02 652.242,1059.35 651.5,1057.5C 653.107,1053.54 652.441,1052.87 649.5,1055.5C 648.325,1052.53 648.658,1049.7 650.5,1047C 649.944,1046.62 649.611,1046.12 649.5,1045.5C 650.933,1044.17 652.267,1042.67 653.5,1041C 652.833,1040.67 652.167,1040.33 651.5,1040C 652.763,1038.29 653.097,1036.63 652.5,1035C 655.167,1034 655.167,1033 652.5,1032C 654.973,1030.08 654.973,1028.24 652.5,1026.5C 653.032,1024.26 654.365,1022.76 656.5,1022C 654.578,1020.54 653.911,1018.87 654.5,1017C 650.963,1015.86 649.796,1013.69 651,1010.5C 647.098,1002.96 640.932,998.46 632.5,997C 633.34,995.334 632.84,995.167 631,996.5C 628.779,995.594 626.612,994.594 624.5,993.5C 625.152,988.673 623.152,986.84 618.5,988C 617.565,990.381 617.232,992.881 617.5,995.5C 615.833,995.5 614.167,995.5 612.5,995.5C 613.815,990.164 611.815,987.497 606.5,987.5C 609.039,985.146 612.039,984.812 615.5,986.5C 616.192,985.975 616.692,985.308 617,984.5C 619.896,986.745 623.063,987.078 626.5,985.5C 626.109,986.891 626.942,987.891 629,988.5C 629.414,988.043 629.914,987.709 630.5,987.5C 634.047,988.934 637.38,989.934 640.5,990.5 Z"/></g>
<g><path style="opacity:1" fill="#fecd48" d="M 624.5,993.5 C 626.612,994.594 628.779,995.594 631,996.5C 632.84,995.167 633.34,995.334 632.5,997C 640.932,998.46 647.098,1002.96 651,1010.5C 649.796,1013.69 650.963,1015.86 654.5,1017C 653.911,1018.87 654.578,1020.54 656.5,1022C 654.365,1022.76 653.032,1024.26 652.5,1026.5C 654.973,1028.24 654.973,1030.08 652.5,1032C 655.167,1033 655.167,1034 652.5,1035C 653.097,1036.63 652.763,1038.29 651.5,1040C 652.167,1040.33 652.833,1040.67 653.5,1041C 652.267,1042.67 650.933,1044.17 649.5,1045.5C 648.317,1046.5 646.984,1047.34 645.5,1048C 646.167,1048.67 646.833,1049.33 647.5,1050C 645.741,1050.98 644.074,1051.65 642.5,1052C 643.535,1053.51 643.368,1055.01 642,1056.5C 641.667,1056.17 641.333,1055.83 641,1055.5C 639.148,1057.23 639.314,1058.4 641.5,1059C 640.328,1059.42 639.328,1060.09 638.5,1061C 639.554,1062.39 639.72,1063.89 639,1065.5C 636.443,1066.54 634.11,1067.88 632,1069.5C 631.282,1068.55 630.449,1068.38 629.5,1069C 630.888,1069.89 630.722,1070.39 629,1070.5C 625.039,1069.49 621.372,1070.16 618,1072.5C 617.667,1071.83 617.333,1071.17 617,1070.5C 615.013,1071.22 613.179,1072.22 611.5,1073.5C 611.687,1072.18 611.02,1070.85 609.5,1069.5C 608.5,1070.17 607.5,1070.83 606.5,1071.5C 605.28,1070.29 604.113,1070.29 603,1071.5C 601.54,1069.58 599.873,1068.91 598,1069.5C 597.667,1068.5 597.333,1067.5 597,1066.5C 596.667,1066.83 596.333,1067.17 596,1067.5C 594.902,1066.03 593.402,1065.2 591.5,1065C 592.609,1063.19 591.942,1062.35 589.5,1062.5C 589.762,1061.02 589.429,1059.69 588.5,1058.5C 586.179,1057.44 585.179,1055.94 585.5,1054C 582.953,1052.68 582.287,1050.85 583.5,1048.5C 579.875,1046.14 579.542,1043.31 582.5,1040C 581.5,1039.67 580.5,1039.33 579.5,1039C 580.672,1038.58 581.672,1037.91 582.5,1037C 581.542,1035.85 581.875,1034.85 583.5,1034C 581.487,1033.12 581.487,1031.79 583.5,1030C 582.167,1028.16 582.334,1027.66 584,1028.5C 585.964,1026.15 586.464,1023.65 585.5,1021C 586.308,1020.69 586.975,1020.19 587.5,1019.5C 584.869,1018 585.203,1017.33 588.5,1017.5C 589.044,1015.42 589.878,1013.42 591,1011.5C 591.708,1012.38 592.542,1013.05 593.5,1013.5C 594.951,1019.95 598.617,1024.61 604.5,1027.5C 604.825,1034.69 604.491,1041.69 603.5,1048.5C 601.721,1046.45 600.054,1044.29 598.5,1042C 591.535,1041.29 590.035,1043.79 594,1049.5C 597.086,1053.26 600.752,1056.26 605,1058.5C 605.256,1061.56 605.756,1064.56 606.5,1067.5C 608.611,1068.85 610.445,1068.52 612,1066.5C 612.495,1064.53 612.662,1062.53 612.5,1060.5C 614.167,1060.5 615.833,1060.5 617.5,1060.5C 617.338,1062.53 617.505,1064.53 618,1066.5C 620,1069.17 622,1069.17 624,1066.5C 624.497,1064.19 624.663,1061.86 624.5,1059.5C 632.582,1057.4 636.582,1052.06 636.5,1043.5C 636.535,1035.52 632.868,1029.85 625.5,1026.5C 624.336,1020.19 624.169,1013.86 625,1007.5C 626.717,1008.99 627.884,1010.82 628.5,1013C 634.094,1014.91 636.261,1013.08 635,1007.5C 632.944,1002.73 629.444,999.735 624.5,998.5C 624.5,996.833 624.5,995.167 624.5,993.5 Z"/></g>
<g><path style="opacity:1" fill="#fee8a5" d="M 604.5,1027.5 C 605.819,1034.68 605.819,1042.01 604.5,1049.5C 603.893,1049.38 603.56,1049.04 603.5,1048.5C 604.491,1041.69 604.825,1034.69 604.5,1027.5 Z"/></g>
<g><path style="opacity:1" fill="#fffdf8" d="M 606.5,987.5 C 611.815,987.497 613.815,990.164 612.5,995.5C 614.167,995.5 615.833,995.5 617.5,995.5C 617.232,992.881 617.565,990.381 618.5,988C 623.152,986.84 625.152,988.673 624.5,993.5C 624.5,995.167 624.5,996.833 624.5,998.5C 629.444,999.735 632.944,1002.73 635,1007.5C 636.261,1013.08 634.094,1014.91 628.5,1013C 627.884,1010.82 626.717,1008.99 625,1007.5C 624.169,1013.86 624.336,1020.19 625.5,1026.5C 632.868,1029.85 636.535,1035.52 636.5,1043.5C 636.582,1052.06 632.582,1057.4 624.5,1059.5C 624.663,1061.86 624.497,1064.19 624,1066.5C 622,1069.17 620,1069.17 618,1066.5C 617.505,1064.53 617.338,1062.53 617.5,1060.5C 615.833,1060.5 614.167,1060.5 612.5,1060.5C 612.662,1062.53 612.495,1064.53 612,1066.5C 610.445,1068.52 608.611,1068.85 606.5,1067.5C 605.756,1064.56 605.256,1061.56 605,1058.5C 600.752,1056.26 597.086,1053.26 594,1049.5C 590.035,1043.79 591.535,1041.29 598.5,1042C 600.054,1044.29 601.721,1046.45 603.5,1048.5C 603.56,1049.04 603.893,1049.38 604.5,1049.5C 605.819,1042.01 605.819,1034.68 604.5,1027.5C 598.617,1024.61 594.951,1019.95 593.5,1013.5C 593.271,1005.96 596.604,1000.63 603.5,997.5C 604.474,995.257 604.808,992.924 604.5,990.5C 605.167,989.5 605.833,988.5 606.5,987.5 Z"/></g>
<g><path style="opacity:1" fill="#fed555" d="M 624.5,1035.5 C 629.745,1038.93 630.911,1043.6 628,1049.5C 627.311,1050.36 626.478,1051.02 625.5,1051.5C 624.505,1046.21 624.172,1040.87 624.5,1035.5 Z"/></g>
<g><path style="opacity:1" fill="#fed456" d="M 612.5,1030.5 C 614.042,1031.3 615.708,1031.63 617.5,1031.5C 617.5,1038.83 617.5,1046.17 617.5,1053.5C 615.833,1053.5 614.167,1053.5 612.5,1053.5C 612.5,1045.83 612.5,1038.17 612.5,1030.5 Z"/></g>
<g><path style="opacity:1" fill="#fee3a3" d="M 603.5,1006.5 C 603.56,1005.96 603.893,1005.62 604.5,1005.5C 605.833,1009.83 605.833,1014.17 604.5,1018.5C 603.893,1018.38 603.56,1018.04 603.5,1017.5C 604.833,1013.83 604.833,1010.17 603.5,1006.5 Z"/></g>
<g><path style="opacity:1" fill="#fecc57" d="M 603.5,1006.5 C 604.833,1010.17 604.833,1013.83 603.5,1017.5C 599.577,1013.71 599.577,1010.04 603.5,1006.5 Z"/></g>
<g><path style="opacity:1" fill="#fecc55" d="M 612.5,1003.5 C 614.167,1003.5 615.833,1003.5 617.5,1003.5C 617.83,1010.2 617.497,1016.87 616.5,1023.5C 615.264,1022.75 613.93,1022.42 612.5,1022.5C 612.5,1016.17 612.5,1009.83 612.5,1003.5 Z"/></g>
<g><path style="opacity:0.004" fill="#212537" d="M 776.5,1074.5 C 777.833,1075.17 777.833,1075.17 776.5,1074.5 Z"/></g>
<g><path style="opacity:0.004" fill="#d4361d" d="M 773.5,1075.5 C 774.833,1076.17 774.833,1076.17 773.5,1075.5 Z"/></g>
<g><path style="opacity:0.004" fill="#f4eee1" d="M 715.5,1076.5 C 716.833,1077.17 716.833,1077.17 715.5,1076.5 Z"/></g>
<g><path style="opacity:0.008" fill="#212537" d="M 771.5,1076.5 C 772.833,1077.17 772.833,1077.17 771.5,1076.5 Z"/></g>
<g><path style="opacity:0.004" fill="#f4eee1" d="M 713.5,1077.5 C 714.833,1078.17 714.833,1078.17 713.5,1077.5 Z"/></g>
<g><path style="opacity:0.004" fill="#212537" d="M 769.5,1077.5 C 770.833,1078.17 770.833,1078.17 769.5,1077.5 Z"/></g>
<g><path style="opacity:0.004" fill="#f4eee1" d="M 711.5,1078.5 C 712.833,1079.17 712.833,1079.17 711.5,1078.5 Z"/></g>
<g><path style="opacity:0.004" fill="#212537" d="M 767.5,1078.5 C 768.833,1079.17 768.833,1079.17 767.5,1078.5 Z"/></g>
<g><path style="opacity:0.004" fill="#212537" d="M 764.5,1079.5 C 765.833,1080.17 765.833,1080.17 764.5,1079.5 Z"/></g>
<g><path style="opacity:1" fill="#7a7670" d="M 554.5,1079.5 C 557.342,1079.53 558.509,1080.86 558,1083.5C 556.612,1082.26 555.446,1080.93 554.5,1079.5 Z"/></g>
<g><path style="opacity:0.004" fill="#f4eee1" d="M 708.5,1080.5 C 709.833,1081.17 709.833,1081.17 708.5,1080.5 Z"/></g>
<g><path style="opacity:0.004" fill="#212537" d="M 762.5,1080.5 C 763.833,1081.17 763.833,1081.17 762.5,1080.5 Z"/></g>
<g><path style="opacity:0.004" fill="#f4eee1" d="M 706.5,1081.5 C 707.833,1082.17 707.833,1082.17 706.5,1081.5 Z"/></g>
<g><path style="opacity:0.004" fill="#212537" d="M 760.5,1081.5 C 761.833,1082.17 761.833,1082.17 760.5,1081.5 Z"/></g>
<g><path style="opacity:0.998" fill="#fed44c" d="M 684.5,1010.5 C 688.307,1021.63 688.474,1032.96 685,1044.5C 673.299,1078.72 649.466,1096.06 613.5,1096.5C 607.104,1096.14 600.771,1095.31 594.5,1094C 570.981,1086.31 555.314,1070.81 547.5,1047.5C 549.117,1048.59 549.95,1050.26 550,1052.5C 551.667,1051.5 553.333,1050.5 555,1049.5C 555.112,1046.55 556.612,1045.22 559.5,1045.5C 562.383,1054.27 567.049,1061.93 573.5,1068.5C 579.999,1075.8 587.999,1080.97 597.5,1084C 630.733,1091.71 655.066,1080.54 670.5,1050.5C 673.055,1043.07 674.388,1035.41 674.5,1027.5C 675.15,1027.8 675.817,1028.14 676.5,1028.5C 676.533,1027.01 677.033,1025.68 678,1024.5C 678.388,1025.43 679.055,1026.09 680,1026.5C 681.422,1025.79 682.755,1025.46 684,1025.5C 684.985,1023.63 685.485,1021.63 685.5,1019.5C 685.034,1016.51 684.701,1013.51 684.5,1010.5 Z"/></g>
<g><path style="opacity:0.004" fill="#f4eee1" d="M 704.5,1082.5 C 705.833,1083.17 705.833,1083.17 704.5,1082.5 Z"/></g>
<g><path style="opacity:0.008" fill="#f4eee1" d="M 702.5,1083.5 C 703.833,1084.17 703.833,1084.17 702.5,1083.5 Z"/></g>
<g><path style="opacity:0.004" fill="#212537" d="M 711.5,1084.5 C 710.833,1083.17 710.833,1083.17 711.5,1084.5 Z"/></g>
<g><path style="opacity:0.004" fill="#f4eee1" d="M 700.5,1084.5 C 701.833,1085.17 701.833,1085.17 700.5,1084.5 Z"/></g>
<g><path style="opacity:0.004" fill="#212537" d="M 708.5,1084.5 C 709.833,1085.17 709.833,1085.17 708.5,1084.5 Z"/></g>
<g><path style="opacity:0.004" fill="#212537" d="M 706.5,1085.5 C 707.833,1086.17 707.833,1086.17 706.5,1085.5 Z"/></g>
<g><path style="opacity:1" fill="#98938c" d="M 567.5,1086.5 C 568.251,1085.43 569.251,1085.26 570.5,1086C 573.807,1088 577.14,1090 580.5,1092C 579.833,1092.17 579.167,1092.33 578.5,1092.5C 574.628,1090.73 570.961,1088.73 567.5,1086.5 Z"/></g>
<g><path style="opacity:0.008" fill="#212537" d="M 702.5,1089.5 C 701.833,1088.17 701.833,1088.17 702.5,1089.5 Z"/></g>
<g><path style="opacity:0.004" fill="#212537" d="M 700.5,1090.5 C 699.833,1089.17 699.833,1089.17 700.5,1090.5 Z"/></g>
<g><path style="opacity:0.004" fill="#212537" d="M 697.5,1090.5 C 698.833,1091.17 698.833,1091.17 697.5,1090.5 Z"/></g>
<g><path style="opacity:0.004" fill="#212537" d="M 693.5,1094.5 C 692.833,1093.17 692.833,1093.17 693.5,1094.5 Z"/></g>
<g><path style="opacity:0.004" fill="#f4eee1" d="M 670.5,1100.5 C 671.833,1101.17 671.833,1101.17 670.5,1100.5 Z"/></g>
<g><path style="opacity:0.004" fill="#212537" d="M 715.5,1101.5 C 716.833,1102.17 716.833,1102.17 715.5,1101.5 Z"/></g>
<g><path style="opacity:0.004" fill="#f4eee1" d="M 667.5,1102.5 C 668.833,1103.17 668.833,1103.17 667.5,1102.5 Z"/></g>
<g><path style="opacity:0.004" fill="#212537" d="M 713.5,1102.5 C 714.833,1103.17 714.833,1103.17 713.5,1102.5 Z"/></g>
<g><path style="opacity:0.004" fill="#f4eee1" d="M 665.5,1103.5 C 666.833,1104.17 666.833,1104.17 665.5,1103.5 Z"/></g>
<g><path style="opacity:0.037" fill="#212537" d="M 936.5,1104.5 C 936.897,1103.47 937.563,1103.31 938.5,1104C 937.906,1104.46 937.239,1104.63 936.5,1104.5 Z"/></g>
<g><path style="opacity:0.004" fill="#d4361d" d="M 671.5,1104.5 C 672.833,1105.17 672.833,1105.17 671.5,1104.5 Z"/></g>
<g><path style="opacity:0.004" fill="#212537" d="M 710.5,1104.5 C 711.833,1105.17 711.833,1105.17 710.5,1104.5 Z"/></g>
<g><path style="opacity:0.061" fill="#212537" d="M 939.5,1105.5 C 941.093,1104.13 942.426,1104.47 943.5,1106.5C 943.333,1106.83 943.167,1107.17 943,1107.5C 941.887,1106.69 940.721,1106.03 939.5,1105.5 Z"/></g>
<g><path style="opacity:0.004" fill="#f4eee1" d="M 662.5,1105.5 C 663.833,1106.17 663.833,1106.17 662.5,1105.5 Z"/></g>
<g><path style="opacity:0.004" fill="#212537" d="M 708.5,1105.5 C 709.833,1106.17 709.833,1106.17 708.5,1105.5 Z"/></g>
<g><path style="opacity:0.004" fill="#d4361d" d="M 668.5,1106.5 C 669.833,1107.17 669.833,1107.17 668.5,1106.5 Z"/></g>
<g><path style="opacity:0.008" fill="#212537" d="M 706.5,1106.5 C 707.833,1107.17 707.833,1107.17 706.5,1106.5 Z"/></g>
<g><path style="opacity:0.004" fill="#d4361d" d="M 666.5,1107.5 C 667.833,1108.17 667.833,1108.17 666.5,1107.5 Z"/></g>
<g><path style="opacity:0.008" fill="#212537" d="M 704.5,1107.5 C 705.833,1108.17 705.833,1108.17 704.5,1107.5 Z"/></g>
<g><path style="opacity:0.008" fill="#d4361d" d="M 666.5,1108.5 C 665.833,1109.17 665.833,1109.17 666.5,1108.5 Z"/></g>
<g><path style="opacity:0.004" fill="#d4361d" d="M 663.5,1109.5 C 664.833,1110.17 664.833,1110.17 663.5,1109.5 Z"/></g>
<g><path style="opacity:0.004" fill="#212537" d="M 701.5,1109.5 C 702.833,1110.17 702.833,1110.17 701.5,1109.5 Z"/></g>
<g><path style="opacity:0.008" fill="#d4361d" d="M 663.5,1110.5 C 663.5,1110.83 663.5,1111.17 663.5,1111.5C 662.83,1111.02 662.83,1110.69 663.5,1110.5 Z"/></g>
<g><path style="opacity:0.004" fill="#212537" d="M 699.5,1110.5 C 700.833,1111.17 700.833,1111.17 699.5,1110.5 Z"/></g>
<g><path style="opacity:0.004" fill="#f4eee1" d="M 651.5,1111.5 C 652.833,1112.17 652.833,1112.17 651.5,1111.5 Z"/></g>
<g><path style="opacity:0.004" fill="#d4361d" d="M 660.5,1111.5 C 661.833,1112.17 661.833,1112.17 660.5,1111.5 Z"/></g>
<g><path style="opacity:0.004" fill="#212537" d="M 697.5,1111.5 C 698.833,1112.17 698.833,1112.17 697.5,1111.5 Z"/></g>
<g><path style="opacity:0.004" fill="#f4eee1" d="M 649.5,1112.5 C 650.833,1113.17 650.833,1113.17 649.5,1112.5 Z"/></g>
<g><path style="opacity:0.008" fill="#d4361d" d="M 660.5,1112.5 C 660.5,1112.83 660.5,1113.17 660.5,1113.5C 659.83,1113.02 659.83,1112.69 660.5,1112.5 Z"/></g>
<g><path style="opacity:0.004" fill="#f4eee1" d="M 649.5,1113.5 C 648.833,1114.17 648.833,1114.17 649.5,1113.5 Z"/></g>
<g><path style="opacity:0.004" fill="#f4eee1" d="M 646.5,1114.5 C 647.833,1115.17 647.833,1115.17 646.5,1114.5 Z"/></g>
<g><path style="opacity:0.004" fill="#f4eee1" d="M 646.5,1115.5 C 645.833,1116.17 645.833,1116.17 646.5,1115.5 Z"/></g>
<g><path style="opacity:0.004" fill="#f4eee1" d="M 643.5,1116.5 C 644.833,1117.17 644.833,1117.17 643.5,1116.5 Z"/></g>
<g><path style="opacity:0.004" fill="#f4eee1" d="M 643.5,1117.5 C 642.833,1118.17 642.833,1118.17 643.5,1117.5 Z"/></g>
<g><path style="opacity:0.004" fill="#f4eee1" d="M 640.5,1118.5 C 641.833,1119.17 641.833,1119.17 640.5,1118.5 Z"/></g>
<g><path style="opacity:1" fill="#752e4c" d="M 569.5,1118.5 C 575.933,1122.42 582.267,1126.58 588.5,1131C 590.766,1132.43 592.432,1134.26 593.5,1136.5C 593.5,1140.83 593.5,1145.17 593.5,1149.5C 590.984,1149.24 588.65,1148.41 586.5,1147C 577.434,1140.81 568.434,1134.64 559.5,1128.5C 560.75,1128.42 561.583,1127.76 562,1126.5C 563.84,1127.83 564.34,1127.67 563.5,1126C 564.253,1124.51 565.086,1124.35 566,1125.5C 567.101,1123.61 568.434,1122.94 570,1123.5C 570.64,1121.73 570.473,1120.07 569.5,1118.5 Z"/></g>
<g><path style="opacity:0.004" fill="#f4eee1" d="M 637.5,1120.5 C 638.833,1121.17 638.833,1121.17 637.5,1120.5 Z"/></g>
<g><path style="opacity:0.004" fill="#d4361d" d="M 644.5,1123.5 C 643.833,1122.17 643.833,1122.17 644.5,1123.5 Z"/></g>
<g><path style="opacity:0.004" fill="#212537" d="M 663.5,1130.5 C 664.833,1131.17 664.833,1131.17 663.5,1130.5 Z"/></g>
<g><path style="opacity:0.004" fill="#f4eee1" d="M 617.5,1132.5 C 618.833,1133.17 618.833,1133.17 617.5,1132.5 Z"/></g>
<g><path style="opacity:0.061" fill="#d4361d" d="M 631.5,1133.5 C 631.5,1134.17 631.167,1134.5 630.5,1134.5C 629.833,1134.5 629.5,1134.83 629.5,1135.5C 628.957,1135.44 628.624,1135.11 628.5,1134.5C 629.325,1133.61 630.325,1133.28 631.5,1133.5 Z"/></g>
<g><path style="opacity:0.02" fill="#212537" d="M 612.5,1135.5 C 613.167,1136.17 613.833,1136.83 614.5,1137.5C 613.325,1137.72 612.325,1137.39 611.5,1136.5C 611.624,1135.89 611.957,1135.56 612.5,1135.5 Z"/></g>
<g><path style="opacity:0.015" fill="#f4eee1" d="M 612.5,1135.5 C 614.429,1135.23 616.095,1135.73 617.5,1137C 616.552,1137.48 615.552,1137.65 614.5,1137.5C 613.833,1136.83 613.167,1136.17 612.5,1135.5 Z"/></g>
<g><path style="opacity:0.187" fill="#d4361d" d="M 593.5,1136.5 C 594.167,1137.5 594.833,1138.5 595.5,1139.5C 595.5,1140.83 595.5,1142.17 595.5,1143.5C 594.944,1146.12 594.277,1148.12 593.5,1149.5C 593.5,1145.17 593.5,1140.83 593.5,1136.5 Z"/></g>
<g><path style="opacity:0.004" fill="#212537" d="M 652.5,1136.5 C 653.833,1137.17 653.833,1137.17 652.5,1136.5 Z"/></g>
<g><path style="opacity:0.004" fill="#212537" d="M 651.5,1137.5 C 651.833,1137.5 652.167,1137.5 652.5,1137.5C 652.315,1138.17 651.981,1138.17 651.5,1137.5 Z"/></g>
<g><path style="opacity:0.008" fill="#212537" d="M 649.5,1138.5 C 650.833,1139.17 650.833,1139.17 649.5,1138.5 Z"/></g>
<g><path style="opacity:0.094" fill="#972329" d="M 629.5,1135.5 C 629.833,1135.5 630.167,1135.5 630.5,1135.5C 630.5,1137.17 630.5,1138.83 630.5,1140.5C 624.642,1140.82 618.975,1140.49 613.5,1139.5C 618.833,1139.5 624.167,1139.5 629.5,1139.5C 629.5,1138.17 629.5,1136.83 629.5,1135.5 Z"/></g>
<g><path style="opacity:0.004" fill="#212537" d="M 649.5,1139.5 C 648.833,1140.17 648.833,1140.17 649.5,1139.5 Z"/></g>
<g><path style="opacity:1" fill="#782c47" d="M 641.5,1126.5 C 641.063,1128.07 640.063,1129.24 638.5,1130C 639.833,1131 639.833,1132 638.5,1133C 639.416,1133.37 640.25,1133.87 641,1134.5C 641.5,1133.33 642.333,1132.5 643.5,1132C 640.721,1131.85 640.221,1131.02 642,1129.5C 644.307,1130.14 646.807,1130.14 649.5,1129.5C 650.281,1130.73 650.781,1132.06 651,1133.5C 651.414,1133.04 651.914,1132.71 652.5,1132.5C 653.182,1133.24 653.849,1133.91 654.5,1134.5C 653.833,1135.17 653.167,1135.83 652.5,1136.5C 651.833,1136.5 651.5,1136.83 651.5,1137.5C 650.508,1137.33 649.842,1137.66 649.5,1138.5C 647.973,1138.43 646.973,1139.09 646.5,1140.5C 644.973,1140.43 643.973,1141.09 643.5,1142.5C 638.855,1144.82 634.189,1147.16 629.5,1149.5C 628.373,1153.13 627.373,1156.8 626.5,1160.5C 616.856,1161.5 607.19,1161.83 597.5,1161.5C 596.74,1155.51 596.073,1149.51 595.5,1143.5C 595.5,1142.17 595.5,1140.83 595.5,1139.5C 601.5,1139.5 607.5,1139.5 613.5,1139.5C 618.975,1140.49 624.642,1140.82 630.5,1140.5C 630.5,1138.83 630.5,1137.17 630.5,1135.5C 630.5,1135.17 630.5,1134.83 630.5,1134.5C 631.167,1134.5 631.5,1134.17 631.5,1133.5C 634.796,1131.18 638.129,1128.85 641.5,1126.5 Z"/></g>
<g><path style="opacity:0.008" fill="#212537" d="M 646.5,1140.5 C 647.833,1141.17 647.833,1141.17 646.5,1140.5 Z"/></g>
<g><path style="opacity:0.004" fill="#212537" d="M 646.5,1141.5 C 645.833,1142.17 645.833,1142.17 646.5,1141.5 Z"/></g>
<g><path style="opacity:0.008" fill="#d4361d" d="M 643.5,1142.5 C 644.833,1143.17 644.833,1143.17 643.5,1142.5 Z"/></g>
<g><path style="opacity:0.004" fill="#d4361d" d="M 643.5,1143.5 C 642.833,1144.17 642.833,1144.17 643.5,1143.5 Z"/></g>
<g><path style="opacity:0.004" fill="#d4361d" d="M 640.5,1144.5 C 641.833,1145.17 641.833,1145.17 640.5,1144.5 Z"/></g>
<g><path style="opacity:0.004" fill="#d4361d" d="M 640.5,1145.5 C 639.833,1146.17 639.833,1146.17 640.5,1145.5 Z"/></g>
<g><path style="opacity:0.004" fill="#d4361d" d="M 637.5,1146.5 C 638.833,1147.17 638.833,1147.17 637.5,1146.5 Z"/></g>
<g><path style="opacity:0.019" fill="#212537" d="M 936.5,1147.5 C 939.304,1146.36 942.304,1146.2 945.5,1147C 942.65,1148.76 939.65,1148.93 936.5,1147.5 Z"/></g>
<g><path style="opacity:0.019" fill="#212537" d="M 924.5,1155.5 C 926.476,1156.43 926.809,1157.76 925.5,1159.5C 924.571,1158.31 924.238,1156.98 924.5,1155.5 Z"/></g>
</svg>
